STARTFONT 2.1
COMMENT
COMMENT Converted from TrueType font "verdana.ttf" by "ttf2bdf 2.6".
COMMENT
FONT -FreeType-Verdana-Medium-R-Normal--17-120-100-100-P-94-ISO10646-1
SIZE 12 100 100
FONTBOUNDINGBOX 27 20 -2 -3
STARTPROPERTIES 20
FOUNDRY "FreeType"
FAMILY_NAME "Verdana"
WEIGHT_NAME "Medium"
SLANT "R"
SETWIDTH_NAME "Normal"
ADD_STYLE_NAME ""
PIXEL_SIZE 17
POINT_SIZE 120
RESOLUTION_X 100
RESOLUTION_Y 100
SPACING "P"
AVERAGE_WIDTH 94
CHARSET_REGISTRY "ISO10646"
CHARSET_ENCODING "1"
FONT_ASCENT 17
FONT_DESCENT 3
COPYRIGHT "Typeface and data © 1996 Microsoft Corporation. All Rights Reserved"
_TTF_FONTFILE "verdana.ttf"
_TTF_PSNAME "Verdana"
_XFREE86_GLYPH_RANGES "32_126 160_383 402 416_417 431_432 506_511 710_711 713 728_733 768_769 771 777 803 894 900_906 908 910_929 931_974 1025_1036 1038_1103 1105_1116 1118_1119 1168_1169 7808_7813 7840_7929 8211_8213 8215_8222 8224_8226 8230 8240 8242_8243 8249_8250 8252 8254 8260 8319 8355_8356 8359 8363_8364 8453 8467 8470 8482 8486 8494 8539_8542 8706 8710 8719 8721_8722 8725 8729_8730 8734 8747 8776 8800 8804_8805 9633 9642_9643 9674 9679 9702 61441_61442 61444_61453 64257_64258"
ENDPROPERTIES
CHARS 680
STARTCHAR 0020
ENCODING 32
SWIDTH 360 0
DWIDTH 6 0
BBX 1 1 0 0
BITMAP
00
ENDCHAR
STARTCHAR 0021
ENCODING 33
SWIDTH 420 0
DWIDTH 7 0
BBX 2 12 3 0
BITMAP
C0
C0
C0
C0
C0
C0
C0
C0
C0
00
C0
C0
ENDCHAR
STARTCHAR 0022
ENCODING 34
SWIDTH 480 0
DWIDTH 8 0
BBX 5 5 1 8
BITMAP
D8
D8
D8
D8
D8
ENDCHAR
STARTCHAR 0023
ENCODING 35
SWIDTH 840 0
DWIDTH 14 0
BBX 11 12 2 0
BITMAP
0480
0480
0900
7FE0
0900
0900
1200
1200
FFC0
1200
2400
2400
ENDCHAR
STARTCHAR 0024
ENCODING 36
SWIDTH 660 0
DWIDTH 11 0
BBX 9 16 1 -3
BITMAP
0800
0800
3F80
6880
C800
C800
E800
3E00
0B80
0980
0980
8B00
FE00
0800
0800
0800
ENDCHAR
STARTCHAR 0025
ENCODING 37
SWIDTH 1080 0
DWIDTH 18 0
BBX 16 12 1 0
BITMAP
7830
CC20
CC60
CC40
CCC0
CC9E
7933
0333
0233
0633
0433
0C1E
ENDCHAR
STARTCHAR 0026
ENCODING 38
SWIDTH 720 0
DWIDTH 12 0
BBX 12 12 1 0
BITMAP
3C00
6600
6600
6600
3C00
38C0
6CC0
C6C0
C380
C1C0
6360
3C30
ENDCHAR
STARTCHAR 0027
ENCODING 39
SWIDTH 300 0
DWIDTH 5 0
BBX 2 5 1 8
BITMAP
C0
C0
C0
C0
C0
ENDCHAR
STARTCHAR 0028
ENCODING 40
SWIDTH 480 0
DWIDTH 8 0
BBX 5 16 1 -3
BITMAP
18
30
60
60
E0
C0
C0
C0
C0
C0
C0
C0
60
60
30
18
ENDCHAR
STARTCHAR 0029
ENCODING 41
SWIDTH 480 0
DWIDTH 8 0
BBX 5 16 1 -3
BITMAP
C0
60
30
30
38
18
18
18
18
18
18
18
30
30
60
C0
ENDCHAR
STARTCHAR 002A
ENCODING 42
SWIDTH 660 0
DWIDTH 11 0
BBX 7 8 2 5
BITMAP
10
92
54
38
38
54
92
10
ENDCHAR
STARTCHAR 002B
ENCODING 43
SWIDTH 840 0
DWIDTH 14 0
BBX 11 11 1 0
BITMAP
0400
0400
0400
0400
0400
FFE0
0400
0400
0400
0400
0400
ENDCHAR
STARTCHAR 002C
ENCODING 44
SWIDTH 360 0
DWIDTH 6 0
BBX 4 5 1 -3
BITMAP
70
60
60
C0
C0
ENDCHAR
STARTCHAR 002D
ENCODING 45
SWIDTH 480 0
DWIDTH 8 0
BBX 5 1 1 5
BITMAP
F8
ENDCHAR
STARTCHAR 002E
ENCODING 46
SWIDTH 360 0
DWIDTH 6 0
BBX 2 2 2 0
BITMAP
C0
C0
ENDCHAR
STARTCHAR 002F
ENCODING 47
SWIDTH 480 0
DWIDTH 8 0
BBX 7 16 0 -3
BITMAP
06
06
0C
0C
0C
18
18
18
30
30
30
60
60
60
C0
C0
ENDCHAR
STARTCHAR 0030
ENCODING 48
SWIDTH 660 0
DWIDTH 11 0
BBX 9 12 1 0
BITMAP
3E00
6300
4100
C180
C180
C180
C180
C180
C180
4100
6300
3E00
ENDCHAR
STARTCHAR 0031
ENCODING 49
SWIDTH 660 0
DWIDTH 11 0
BBX 8 12 2 0
BITMAP
18
18
F8
18
18
18
18
18
18
18
18
FF
ENDCHAR
STARTCHAR 0032
ENCODING 50
SWIDTH 660 0
DWIDTH 11 0
BBX 9 12 1 0
BITMAP
7C00
C600
8300
0300
0300
0600
0E00
1C00
3800
7000
C000
FF80
ENDCHAR
STARTCHAR 0033
ENCODING 51
SWIDTH 660 0
DWIDTH 11 0
BBX 9 12 1 0
BITMAP
7E00
C380
8180
0180
0300
1C00
0300
0180
0180
8180
C300
7E00
ENDCHAR
STARTCHAR 0034
ENCODING 52
SWIDTH 660 0
DWIDTH 11 0
BBX 10 12 1 0
BITMAP
0300
0700
0B00
1300
3300
6300
C300
8300
FFC0
0300
0300
0300
ENDCHAR
STARTCHAR 0035
ENCODING 53
SWIDTH 660 0
DWIDTH 11 0
BBX 8 12 2 0
BITMAP
7F
60
60
60
7C
06
03
03
03
03
86
FC
ENDCHAR
STARTCHAR 0036
ENCODING 54
SWIDTH 660 0
DWIDTH 11 0
BBX 9 12 1 0
BITMAP
0F00
3000
6000
4000
DE00
E300
C180
C180
C180
C180
6300
3E00
ENDCHAR
STARTCHAR 0037
ENCODING 55
SWIDTH 660 0
DWIDTH 11 0
BBX 8 12 1 0
BITMAP
FF
03
06
06
0C
0C
1C
18
18
30
30
60
ENDCHAR
STARTCHAR 0038
ENCODING 56
SWIDTH 660 0
DWIDTH 11 0
BBX 9 12 1 0
BITMAP
3E00
6300
C180
C180
6300
3E00
6700
C180
C180
C180
6300
3E00
ENDCHAR
STARTCHAR 0039
ENCODING 57
SWIDTH 660 0
DWIDTH 11 0
BBX 9 12 1 0
BITMAP
3E00
6300
C180
C180
C180
C180
6180
3F80
0100
0300
0600
7800
ENDCHAR
STARTCHAR 003A
ENCODING 58
SWIDTH 480 0
DWIDTH 8 0
BBX 2 9 3 0
BITMAP
C0
C0
00
00
00
00
00
C0
C0
ENDCHAR
STARTCHAR 003B
ENCODING 59
SWIDTH 480 0
DWIDTH 8 0
BBX 4 12 2 -3
BITMAP
60
60
00
00
00
00
00
70
60
60
C0
C0
ENDCHAR
STARTCHAR 003C
ENCODING 60
SWIDTH 840 0
DWIDTH 14 0
BBX 10 10 2 1
BITMAP
00C0
0300
0C00
3000
C000
C000
3000
0C00
0300
00C0
ENDCHAR
STARTCHAR 003D
ENCODING 61
SWIDTH 840 0
DWIDTH 14 0
BBX 10 4 2 4
BITMAP
FFC0
0000
0000
FFC0
ENDCHAR
STARTCHAR 003E
ENCODING 62
SWIDTH 840 0
DWIDTH 14 0
BBX 10 10 2 1
BITMAP
C000
3000
0C00
0300
00C0
00C0
0300
0C00
3000
C000
ENDCHAR
STARTCHAR 003F
ENCODING 63
SWIDTH 540 0
DWIDTH 9 0
BBX 7 12 1 0
BITMAP
F8
8E
06
06
0E
1C
38
30
30
00
30
30
ENDCHAR
STARTCHAR 0040
ENCODING 64
SWIDTH 1020 0
DWIDTH 17 0
BBX 14 14 1 -2
BITMAP
0FC0
1870
3018
67D8
CCCC
D8CC
D8CC
D8CC
D8CC
D8C8
6FF8
7000
3800
0FC0
ENDCHAR
STARTCHAR 0041
ENCODING 65
SWIDTH 720 0
DWIDTH 12 0
BBX 12 12 0 0
BITMAP
0600
0F00
0F00
1980
1980
1980
30C0
3FC0
6060
6060
6060
C030
ENDCHAR
STARTCHAR 0042
ENCODING 66
SWIDTH 720 0
DWIDTH 12 0
BBX 9 12 2 0
BITMAP
FE00
C300
C300
C300
C600
FE00
C300
C180
C180
C180
C300
FE00
ENDCHAR
STARTCHAR 0043
ENCODING 67
SWIDTH 720 0
DWIDTH 12 0
BBX 10 12 1 0
BITMAP
1F80
30C0
6040
C000
C000
C000
C000
C000
C000
6040
30C0
1F80
ENDCHAR
STARTCHAR 0044
ENCODING 68
SWIDTH 780 0
DWIDTH 13 0
BBX 10 12 2 0
BITMAP
FE00
C300
C180
C0C0
C0C0
C0C0
C0C0
C0C0
C0C0
C180
C300
FE00
ENDCHAR
STARTCHAR 0045
ENCODING 69
SWIDTH 660 0
DWIDTH 11 0
BBX 8 12 2 0
BITMAP
FF
C0
C0
C0
C0
FF
C0
C0
C0
C0
C0
FF
ENDCHAR
STARTCHAR 0046
ENCODING 70
SWIDTH 600 0
DWIDTH 10 0
BBX 8 12 2 0
BITMAP
FF
C0
C0
C0
C0
FE
C0
C0
C0
C0
C0
C0
ENDCHAR
STARTCHAR 0047
ENCODING 71
SWIDTH 780 0
DWIDTH 13 0
BBX 11 12 1 0
BITMAP
0FC0
3060
6020
C000
C000
C000
C3E0
C060
C060
6060
3060
1F80
ENDCHAR
STARTCHAR 0048
ENCODING 72
SWIDTH 780 0
DWIDTH 13 0
BBX 9 12 2 0
BITMAP
C180
C180
C180
C180
C180
FF80
C180
C180
C180
C180
C180
C180
ENDCHAR
STARTCHAR 0049
ENCODING 73
SWIDTH 480 0
DWIDTH 8 0
BBX 6 12 1 0
BITMAP
FC
30
30
30
30
30
30
30
30
30
30
FC
ENDCHAR
STARTCHAR 004A
ENCODING 74
SWIDTH 480 0
DWIDTH 8 0
BBX 6 12 0 0
BITMAP
3C
0C
0C
0C
0C
0C
0C
0C
0C
0C
0C
F0
ENDCHAR
STARTCHAR 004B
ENCODING 75
SWIDTH 720 0
DWIDTH 12 0
BBX 10 12 2 0
BITMAP
C180
C300
C600
CC00
D800
F000
F800
CC00
CE00
C700
C380
C1C0
ENDCHAR
STARTCHAR 004C
ENCODING 76
SWIDTH 540 0
DWIDTH 9 0
BBX 7 12 2 0
BITMAP
C0
C0
C0
C0
C0
C0
C0
C0
C0
C0
C0
FE
ENDCHAR
STARTCHAR 004D
ENCODING 77
SWIDTH 840 0
DWIDTH 14 0
BBX 10 12 2 0
BITMAP
E1C0
E1C0
E1C0
D2C0
D2C0
DAC0
CCC0
CCC0
CCC0
C0C0
C0C0
C0C0
ENDCHAR
STARTCHAR 004E
ENCODING 78
SWIDTH 780 0
DWIDTH 13 0
BBX 9 12 2 0
BITMAP
E180
E180
D180
D180
D980
C980
CD80
C580
C580
C380
C380
C380
ENDCHAR
STARTCHAR 004F
ENCODING 79
SWIDTH 780 0
DWIDTH 13 0
BBX 11 12 1 0
BITMAP
1F00
3180
60C0
C060
C060
C060
C060
C060
C060
60C0
3180
1F00
ENDCHAR
STARTCHAR 0050
ENCODING 80
SWIDTH 600 0
DWIDTH 10 0
BBX 7 12 2 0
BITMAP
F8
CC
C6
C6
C6
C6
CC
F8
C0
C0
C0
C0
ENDCHAR
STARTCHAR 0051
ENCODING 81
SWIDTH 780 0
DWIDTH 13 0
BBX 11 15 1 -3
BITMAP
1F00
3180
60C0
C060
C060
C060
C060
C060
C060
60C0
3180
1F00
0300
0300
01E0
ENDCHAR
STARTCHAR 0052
ENCODING 82
SWIDTH 720 0
DWIDTH 12 0
BBX 10 12 2 0
BITMAP
FC00
C700
C300
C300
C300
C600
FC00
CC00
C600
C300
C180
C1C0
ENDCHAR
STARTCHAR 0053
ENCODING 83
SWIDTH 720 0
DWIDTH 12 0
BBX 10 12 1 0
BITMAP
3F00
6180
C080
C000
E000
7E00
1F80
01C0
00C0
80C0
C180
7F00
ENDCHAR
STARTCHAR 0054
ENCODING 84
SWIDTH 600 0
DWIDTH 10 0
BBX 10 12 0 0
BITMAP
FFC0
0C00
0C00
0C00
0C00
0C00
0C00
0C00
0C00
0C00
0C00
0C00
ENDCHAR
STARTCHAR 0055
ENCODING 85
SWIDTH 720 0
DWIDTH 12 0
BBX 10 12 1 0
BITMAP
C0C0
C0C0
C0C0
C0C0
C0C0
C0C0
C0C0
C0C0
C0C0
C0C0
6180
3F00
ENDCHAR
STARTCHAR 0056
ENCODING 86
SWIDTH 720 0
DWIDTH 12 0
BBX 12 12 0 0
BITMAP
C030
4020
6060
6060
30C0
30C0
1080
1980
1980
0F00
0F00
0600
ENDCHAR
STARTCHAR 0057
ENCODING 87
SWIDTH 1020 0
DWIDTH 17 0
BBX 15 12 1 0
BITMAP
C106
C386
628C
628C
628C
66CC
2448
3458
3458
1C78
1830
1830
ENDCHAR
STARTCHAR 0058
ENCODING 88
SWIDTH 720 0
DWIDTH 12 0
BBX 10 12 1 0
BITMAP
E1C0
6180
3300
3300
1E00
0C00
0C00
1E00
3300
3300
6180
E1C0
ENDCHAR
STARTCHAR 0059
ENCODING 89
SWIDTH 600 0
DWIDTH 10 0
BBX 10 12 0 0
BITMAP
E1C0
6180
7380
3300
1E00
1E00
0C00
0C00
0C00
0C00
0C00
0C00
ENDCHAR
STARTCHAR 005A
ENCODING 90
SWIDTH 720 0
DWIDTH 12 0
BBX 10 12 1 0
BITMAP
FFC0
01C0
0180
0300
0600
0C00
0C00
1800
3000
6000
E000
FFC0
ENDCHAR
STARTCHAR 005B
ENCODING 91
SWIDTH 480 0
DWIDTH 8 0
BBX 4 16 2 -3
BITMAP
F0
C0
C0
C0
C0
C0
C0
C0
C0
C0
C0
C0
C0
C0
C0
F0
ENDCHAR
STARTCHAR 005C
ENCODING 92
SWIDTH 480 0
DWIDTH 8 0
BBX 7 16 1 -3
BITMAP
C0
C0
60
60
60
30
30
30
18
18
18
0C
0C
0C
06
06
ENDCHAR
STARTCHAR 005D
ENCODING 93
SWIDTH 480 0
DWIDTH 8 0
BBX 4 16 1 -3
BITMAP
F0
30
30
30
30
30
30
30
30
30
30
30
30
30
30
F0
ENDCHAR
STARTCHAR 005E
ENCODING 94
SWIDTH 840 0
DWIDTH 14 0
BBX 11 7 2 5
BITMAP
0400
0E00
1B00
3180
2080
60C0
C060
ENDCHAR
STARTCHAR 005F
ENCODING 95
SWIDTH 660 0
DWIDTH 11 0
BBX 11 1 0 -3
BITMAP
FFE0
ENDCHAR
STARTCHAR 0060
ENCODING 96
SWIDTH 660 0
DWIDTH 11 0
BBX 4 3 3 11
BITMAP
E0
60
30
ENDCHAR
STARTCHAR 0061
ENCODING 97
SWIDTH 600 0
DWIDTH 10 0
BBX 8 9 0 0
BITMAP
7E
43
03
3F
63
C3
C3
C7
7B
ENDCHAR
STARTCHAR 0062
ENCODING 98
SWIDTH 660 0
DWIDTH 11 0
BBX 9 13 1 0
BITMAP
C000
C000
C000
C000
DE00
E300
C180
C180
C180
C180
C180
C300
FE00
ENDCHAR
STARTCHAR 0063
ENCODING 99
SWIDTH 540 0
DWIDTH 9 0
BBX 8 9 0 0
BITMAP
3F
61
C0
C0
C0
C0
C0
63
3E
ENDCHAR
STARTCHAR 0064
ENCODING 100
SWIDTH 660 0
DWIDTH 11 0
BBX 9 13 0 0
BITMAP
0180
0180
0180
0180
3F80
6180
C180
C180
C180
C180
C180
6380
3D80
ENDCHAR
STARTCHAR 0065
ENCODING 101
SWIDTH 600 0
DWIDTH 10 0
BBX 9 9 0 0
BITMAP
3E00
6300
C180
C180
FF80
C000
C000
6080
1F80
ENDCHAR
STARTCHAR 0066
ENCODING 102
SWIDTH 360 0
DWIDTH 6 0
BBX 6 13 0 0
BITMAP
3C
60
60
60
F8
60
60
60
60
60
60
60
60
ENDCHAR
STARTCHAR 0067
ENCODING 103
SWIDTH 660 0
DWIDTH 11 0
BBX 9 12 0 -3
BITMAP
3F80
6180
C180
C180
C180
C180
C180
6380
3D80
0180
4300
7E00
ENDCHAR
STARTCHAR 0068
ENCODING 104
SWIDTH 660 0
DWIDTH 11 0
BBX 8 13 1 0
BITMAP
C0
C0
C0
C0
DE
E3
C3
C3
C3
C3
C3
C3
C3
ENDCHAR
STARTCHAR 0069
ENCODING 105
SWIDTH 300 0
DWIDTH 5 0
BBX 2 12 1 0
BITMAP
C0
C0
00
C0
C0
C0
C0
C0
C0
C0
C0
C0
ENDCHAR
STARTCHAR 006A
ENCODING 106
SWIDTH 360 0
DWIDTH 6 0
BBX 5 15 -1 -3
BITMAP
18
18
00
38
18
18
18
18
18
18
18
18
18
18
F0
ENDCHAR
STARTCHAR 006B
ENCODING 107
SWIDTH 600 0
DWIDTH 10 0
BBX 9 13 1 0
BITMAP
C000
C000
C000
C000
C300
C600
CC00
D800
F800
FC00
CE00
C700
C380
ENDCHAR
STARTCHAR 006C
ENCODING 108
SWIDTH 300 0
DWIDTH 5 0
BBX 2 13 1 0
BITMAP
C0
C0
C0
C0
C0
C0
C0
C0
C0
C0
C0
C0
C0
ENDCHAR
STARTCHAR 006D
ENCODING 109
SWIDTH 1020 0
DWIDTH 17 0
BBX 14 9 1 0
BITMAP
DE78
E38C
C30C
C30C
C30C
C30C
C30C
C30C
C30C
ENDCHAR
STARTCHAR 006E
ENCODING 110
SWIDTH 660 0
DWIDTH 11 0
BBX 8 9 1 0
BITMAP
DE
E3
C3
C3
C3
C3
C3
C3
C3
ENDCHAR
STARTCHAR 006F
ENCODING 111
SWIDTH 600 0
DWIDTH 10 0
BBX 9 9 0 0
BITMAP
3E00
6300
C180
C180
C180
C180
C180
6300
3E00
ENDCHAR
STARTCHAR 0070
ENCODING 112
SWIDTH 660 0
DWIDTH 11 0
BBX 9 12 1 -3
BITMAP
DE00
E300
C180
C180
C180
C180
C180
C300
FE00
C000
C000
C000
ENDCHAR
STARTCHAR 0071
ENCODING 113
SWIDTH 660 0
DWIDTH 11 0
BBX 9 12 0 -3
BITMAP
3F80
6180
C180
C180
C180
C180
C180
6380
3D80
0180
0180
0180
ENDCHAR
STARTCHAR 0072
ENCODING 114
SWIDTH 420 0
DWIDTH 7 0
BBX 6 9 1 0
BITMAP
DC
E0
C0
C0
C0
C0
C0
C0
C0
ENDCHAR
STARTCHAR 0073
ENCODING 115
SWIDTH 540 0
DWIDTH 9 0
BBX 8 9 0 0
BITMAP
3E
63
C1
E0
7E
07
83
C6
7C
ENDCHAR
STARTCHAR 0074
ENCODING 116
SWIDTH 420 0
DWIDTH 7 0
BBX 7 12 0 0
BITMAP
60
60
60
FE
60
60
60
60
60
60
60
3E
ENDCHAR
STARTCHAR 0075
ENCODING 117
SWIDTH 660 0
DWIDTH 11 0
BBX 8 9 1 0
BITMAP
C3
C3
C3
C3
C3
C3
C3
C7
7B
ENDCHAR
STARTCHAR 0076
ENCODING 118
SWIDTH 600 0
DWIDTH 10 0
BBX 8 9 1 0
BITMAP
C3
66
66
66
24
3C
3C
18
18
ENDCHAR
STARTCHAR 0077
ENCODING 119
SWIDTH 840 0
DWIDTH 14 0
BBX 12 9 1 0
BITMAP
C630
C630
4620
6F60
6960
6960
39C0
30C0
30C0
ENDCHAR
STARTCHAR 0078
ENCODING 120
SWIDTH 600 0
DWIDTH 10 0
BBX 8 9 1 0
BITMAP
E7
66
3C
38
18
3C
3C
66
E7
ENDCHAR
STARTCHAR 0079
ENCODING 121
SWIDTH 600 0
DWIDTH 10 0
BBX 8 12 1 -3
BITMAP
C3
66
66
66
24
3C
18
18
18
10
30
60
ENDCHAR
STARTCHAR 007A
ENCODING 122
SWIDTH 540 0
DWIDTH 9 0
BBX 7 9 1 0
BITMAP
FE
06
0C
18
10
30
60
C0
FE
ENDCHAR
STARTCHAR 007B
ENCODING 123
SWIDTH 660 0
DWIDTH 11 0
BBX 8 16 2 -3
BITMAP
0F
18
18
18
18
18
30
E0
30
18
18
18
18
18
1C
07
ENDCHAR
STARTCHAR 007C
ENCODING 124
SWIDTH 480 0
DWIDTH 8 0
BBX 2 16 3 -3
BITMAP
C0
C0
C0
C0
C0
C0
C0
C0
C0
C0
C0
C0
C0
C0
C0
C0
ENDCHAR
STARTCHAR 007D
ENCODING 125
SWIDTH 660 0
DWIDTH 11 0
BBX 8 16 1 -3
BITMAP
F0
18
18
18
18
18
0C
07
0C
18
18
18
18
18
38
E0
ENDCHAR
STARTCHAR 007E
ENCODING 126
SWIDTH 840 0
DWIDTH 14 0
BBX 11 4 2 4
BITMAP
7860
6860
C4C0
C3C0
ENDCHAR
STARTCHAR 00A0
ENCODING 160
SWIDTH 360 0
DWIDTH 6 0
BBX 1 1 0 0
BITMAP
00
ENDCHAR
STARTCHAR 00A1
ENCODING 161
SWIDTH 420 0
DWIDTH 7 0
BBX 2 12 3 0
BITMAP
C0
C0
00
C0
C0
C0
C0
C0
C0
C0
C0
C0
ENDCHAR
STARTCHAR 00A2
ENCODING 162
SWIDTH 660 0
DWIDTH 11 0
BBX 8 15 1 -3
BITMAP
08
08
08
3F
69
C8
C8
C8
C8
C8
69
3F
08
08
08
ENDCHAR
STARTCHAR 00A3
ENCODING 163
SWIDTH 660 0
DWIDTH 11 0
BBX 9 12 1 0
BITMAP
0F80
1880
3000
3000
3000
3000
FE00
3000
3000
2000
4000
FF80
ENDCHAR
STARTCHAR 00A4
ENCODING 164
SWIDTH 660 0
DWIDTH 11 0
BBX 7 7 2 2
BITMAP
82
7C
7C
6C
7C
7C
82
ENDCHAR
STARTCHAR 00A5
ENCODING 165
SWIDTH 660 0
DWIDTH 11 0
BBX 10 12 1 0
BITMAP
C0C0
6180
6180
3300
1E00
1E00
0C00
7F80
0C00
0C00
0C00
0C00
ENDCHAR
STARTCHAR 00A6
ENCODING 166
SWIDTH 480 0
DWIDTH 8 0
BBX 2 16 3 -3
BITMAP
C0
C0
C0
C0
C0
C0
C0
00
00
C0
C0
C0
C0
C0
C0
C0
ENDCHAR
STARTCHAR 00A7
ENCODING 167
SWIDTH 660 0
DWIDTH 11 0
BBX 8 15 1 -3
BITMAP
3F
E1
C0
C0
78
7E
C3
C3
C3
7E
1E
03
03
86
FC
ENDCHAR
STARTCHAR 00A8
ENCODING 168
SWIDTH 660 0
DWIDTH 11 0
BBX 5 2 3 11
BITMAP
D8
D8
ENDCHAR
STARTCHAR 00A9
ENCODING 169
SWIDTH 1020 0
DWIDTH 17 0
BBX 14 14 1 -2
BITMAP
0FC0
1860
2010
47C8
CC4C
9804
9804
9804
9804
CC4C
47C8
2010
1860
0FC0
ENDCHAR
STARTCHAR 00AA
ENCODING 170
SWIDTH 540 0
DWIDTH 9 0
BBX 7 8 1 4
BITMAP
7C
46
06
3E
E6
C6
C6
7E
ENDCHAR
STARTCHAR 00AB
ENCODING 171
SWIDTH 660 0
DWIDTH 11 0
BBX 9 8 1 1
BITMAP
0880
1980
3300
C600
C600
3300
1980
0880
ENDCHAR
STARTCHAR 00AC
ENCODING 172
SWIDTH 840 0
DWIDTH 14 0
BBX 10 6 2 0
BITMAP
FFC0
00C0
00C0
00C0
00C0
00C0
ENDCHAR
STARTCHAR 00AD
ENCODING 173
SWIDTH 480 0
DWIDTH 8 0
BBX 5 1 1 5
BITMAP
F8
ENDCHAR
STARTCHAR 00AE
ENCODING 174
SWIDTH 1020 0
DWIDTH 17 0
BBX 14 14 1 -2
BITMAP
0FC0
1860
2010
4F88
CCCC
8CC4
8CC4
8F84
8F84
CDCC
4CE8
2010
1860
0FC0
ENDCHAR
STARTCHAR 00AF
ENCODING 175
SWIDTH 660 0
DWIDTH 11 0
BBX 11 1 0 14
BITMAP
FFE0
ENDCHAR
STARTCHAR 00B0
ENCODING 176
SWIDTH 540 0
DWIDTH 9 0
BBX 7 7 1 5
BITMAP
38
6C
C6
C6
C6
6C
38
ENDCHAR
STARTCHAR 00B1
ENCODING 177
SWIDTH 840 0
DWIDTH 14 0
BBX 11 11 1 2
BITMAP
0400
0400
0400
0400
0400
FFE0
0400
0400
0400
0400
FFE0
ENDCHAR
STARTCHAR 00B2
ENCODING 178
SWIDTH 540 0
DWIDTH 9 0
BBX 6 8 2 4
BITMAP
F8
8C
0C
0C
18
30
60
FC
ENDCHAR
STARTCHAR 00B3
ENCODING 179
SWIDTH 540 0
DWIDTH 9 0
BBX 6 8 2 4
BITMAP
F8
8C
0C
30
0C
0C
8C
F8
ENDCHAR
STARTCHAR 00B4
ENCODING 180
SWIDTH 660 0
DWIDTH 11 0
BBX 4 3 4 11
BITMAP
70
60
C0
ENDCHAR
STARTCHAR 00B5
ENCODING 181
SWIDTH 660 0
DWIDTH 11 0
BBX 8 12 1 -3
BITMAP
C3
C3
C3
C3
C3
C3
C3
E7
DB
C0
C0
C0
ENDCHAR
STARTCHAR 00B6
ENCODING 182
SWIDTH 660 0
DWIDTH 11 0
BBX 8 15 1 -3
BITMAP
3F
7B
FB
FB
FB
FB
7B
1B
1B
1B
1B
1B
1B
1B
1B
ENDCHAR
STARTCHAR 00B7
ENCODING 183
SWIDTH 360 0
DWIDTH 6 0
BBX 2 2 2 4
BITMAP
C0
C0
ENDCHAR
STARTCHAR 00B8
ENCODING 184
SWIDTH 660 0
DWIDTH 11 0
BBX 4 3 3 -3
BITMAP
30
30
E0
ENDCHAR
STARTCHAR 00B9
ENCODING 185
SWIDTH 540 0
DWIDTH 9 0
BBX 6 8 2 4
BITMAP
30
F0
30
30
30
30
30
FC
ENDCHAR
STARTCHAR 00BA
ENCODING 186
SWIDTH 540 0
DWIDTH 9 0
BBX 7 8 1 4
BITMAP
38
6C
C6
C6
C6
C6
6C
38
ENDCHAR
STARTCHAR 00BB
ENCODING 187
SWIDTH 660 0
DWIDTH 11 0
BBX 9 8 1 1
BITMAP
8800
CC00
6600
3180
3180
6600
CC00
8800
ENDCHAR
STARTCHAR 00BC
ENCODING 188
SWIDTH 1020 0
DWIDTH 17 0
BBX 13 12 1 0
BITMAP
3060
F040
30C0
3080
31B0
3170
32F0
36B0
0530
0DF8
0830
1830
ENDCHAR
STARTCHAR 00BD
ENCODING 189
SWIDTH 1020 0
DWIDTH 17 0
BBX 16 12 1 0
BITMAP
3060
F040
30C0
3080
31BC
3126
3206
3606
040C
0C18
0830
183F
ENDCHAR
STARTCHAR 00BE
ENCODING 190
SWIDTH 1020 0
DWIDTH 17 0
BBX 14 12 1 0
BITMAP
F060
9840
18C0
7080
1998
1938
9A78
F658
0498
0CFC
0818
1818
ENDCHAR
STARTCHAR 00BF
ENCODING 191
SWIDTH 540 0
DWIDTH 9 0
BBX 7 12 1 0
BITMAP
18
18
00
18
18
38
70
E0
C0
C0
E2
3E
ENDCHAR
STARTCHAR 00C0
ENCODING 192
SWIDTH 720 0
DWIDTH 12 0
BBX 12 17 0 0
BITMAP
0E00
0600
0300
0000
0000
0600
0F00
0F00
1980
1980
1980
30C0
3FC0
6060
6060
6060
C030
ENDCHAR
STARTCHAR 00C1
ENCODING 193
SWIDTH 720 0
DWIDTH 12 0
BBX 12 17 0 0
BITMAP
0380
0300
0600
0000
0000
0600
0F00
0F00
1980
1980
1980
30C0
3FC0
6060
6060
6060
C030
ENDCHAR
STARTCHAR 00C2
ENCODING 194
SWIDTH 720 0
DWIDTH 12 0
BBX 12 17 0 0
BITMAP
0600
0F00
1980
0000
0000
0600
0F00
0F00
1980
1980
1980
30C0
3FC0
6060
6060
6060
C030
ENDCHAR
STARTCHAR 00C3
ENCODING 195
SWIDTH 720 0
DWIDTH 12 0
BBX 12 16 0 0
BITMAP
0E40
1380
0000
0000
0600
0F00
0F00
1980
1980
1980
30C0
3FC0
6060
6060
6060
C030
ENDCHAR
STARTCHAR 00C4
ENCODING 196
SWIDTH 720 0
DWIDTH 12 0
BBX 12 16 0 0
BITMAP
1980
1980
0000
0000
0600
0F00
0F00
1980
1980
1980
30C0
3FC0
6060
6060
6060
C030
ENDCHAR
STARTCHAR 00C5
ENCODING 197
SWIDTH 720 0
DWIDTH 12 0
BBX 12 17 0 0
BITMAP
0F00
1980
1980
1980
1980
0F00
0F00
0F00
0900
1980
1980
30C0
3FC0
6060
6060
6060
C030
ENDCHAR
STARTCHAR 00C6
ENCODING 198
SWIDTH 1020 0
DWIDTH 17 0
BBX 16 12 0 0
BITMAP
07FF
0EC0
0CC0
0CC0
18C0
18FF
3FC0
30C0
70C0
60C0
60C0
C0FF
ENDCHAR
STARTCHAR 00C7
ENCODING 199
SWIDTH 720 0
DWIDTH 12 0
BBX 10 15 1 -3
BITMAP
1F80
30C0
6040
C000
C000
C000
C000
C000
C000
6040
30C0
1F80
0300
0300
0E00
ENDCHAR
STARTCHAR 00C8
ENCODING 200
SWIDTH 660 0
DWIDTH 11 0
BBX 8 17 2 0
BITMAP
38
18
0C
00
00
FF
C0
C0
C0
C0
FF
C0
C0
C0
C0
C0
FF
ENDCHAR
STARTCHAR 00C9
ENCODING 201
SWIDTH 660 0
DWIDTH 11 0
BBX 8 17 2 0
BITMAP
0E
0C
18
00
00
FF
C0
C0
C0
C0
FF
C0
C0
C0
C0
C0
FF
ENDCHAR
STARTCHAR 00CA
ENCODING 202
SWIDTH 660 0
DWIDTH 11 0
BBX 8 17 2 0
BITMAP
18
3C
66
00
00
FF
C0
C0
C0
C0
FF
C0
C0
C0
C0
C0
FF
ENDCHAR
STARTCHAR 00CB
ENCODING 203
SWIDTH 660 0
DWIDTH 11 0
BBX 8 16 2 0
BITMAP
36
36
00
00
FF
C0
C0
C0
C0
FF
C0
C0
C0
C0
C0
FF
ENDCHAR
STARTCHAR 00CC
ENCODING 204
SWIDTH 480 0
DWIDTH 8 0
BBX 6 17 1 0
BITMAP
70
30
18
00
00
FC
30
30
30
30
30
30
30
30
30
30
FC
ENDCHAR
STARTCHAR 00CD
ENCODING 205
SWIDTH 480 0
DWIDTH 8 0
BBX 6 17 1 0
BITMAP
1C
18
30
00
00
FC
30
30
30
30
30
30
30
30
30
30
FC
ENDCHAR
STARTCHAR 00CE
ENCODING 206
SWIDTH 480 0
DWIDTH 8 0
BBX 6 17 1 0
BITMAP
30
78
CC
00
00
FC
30
30
30
30
30
30
30
30
30
30
FC
ENDCHAR
STARTCHAR 00CF
ENCODING 207
SWIDTH 480 0
DWIDTH 8 0
BBX 6 16 1 0
BITMAP
6C
6C
00
00
FC
30
30
30
30
30
30
30
30
30
30
FC
ENDCHAR
STARTCHAR 00D0
ENCODING 208
SWIDTH 780 0
DWIDTH 13 0
BBX 12 12 0 0
BITMAP
3F80
30C0
3060
3030
3030
FC30
3030
3030
3030
3060
30C0
3F80
ENDCHAR
STARTCHAR 00D1
ENCODING 209
SWIDTH 780 0
DWIDTH 13 0
BBX 9 16 2 0
BITMAP
3900
4E00
0000
0000
E180
E180
D180
D180
D980
C980
CD80
C580
C580
C380
C380
C380
ENDCHAR
STARTCHAR 00D2
ENCODING 210
SWIDTH 780 0
DWIDTH 13 0
BBX 11 17 1 0
BITMAP
1C00
0C00
0600
0000
0000
1F00
3180
60C0
C060
C060
C060
C060
C060
C060
60C0
3180
1F00
ENDCHAR
STARTCHAR 00D3
ENCODING 211
SWIDTH 780 0
DWIDTH 13 0
BBX 11 17 1 0
BITMAP
0700
0600
0C00
0000
0000
1F00
3180
60C0
C060
C060
C060
C060
C060
C060
60C0
3180
1F00
ENDCHAR
STARTCHAR 00D4
ENCODING 212
SWIDTH 780 0
DWIDTH 13 0
BBX 11 17 1 0
BITMAP
0600
0F00
1980
0000
0000
1F00
3180
60C0
C060
C060
C060
C060
C060
C060
60C0
3180
1F00
ENDCHAR
STARTCHAR 00D5
ENCODING 213
SWIDTH 780 0
DWIDTH 13 0
BBX 11 16 1 0
BITMAP
1C80
2700
0000
0000
1F00
3180
60C0
C060
C060
C060
C060
C060
C060
60C0
3180
1F00
ENDCHAR
STARTCHAR 00D6
ENCODING 214
SWIDTH 780 0
DWIDTH 13 0
BBX 11 16 1 0
BITMAP
1B00
1B00
0000
0000
1F00
3180
60C0
C060
C060
C060
C060
C060
C060
60C0
3180
1F00
ENDCHAR
STARTCHAR 00D7
ENCODING 215
SWIDTH 840 0
DWIDTH 14 0
BBX 8 9 2 1
BITMAP
81
C3
66
3C
18
3C
66
C3
81
ENDCHAR
STARTCHAR 00D8
ENCODING 216
SWIDTH 780 0
DWIDTH 13 0
BBX 11 14 1 -1
BITMAP
0020
1F40
3180
61C0
C260
C260
C460
C460
C860
D060
70C0
3180
5F00
8000
ENDCHAR
STARTCHAR 00D9
ENCODING 217
SWIDTH 720 0
DWIDTH 12 0
BBX 10 17 1 0
BITMAP
1C00
0C00
0600
0000
0000
C0C0
C0C0
C0C0
C0C0
C0C0
C0C0
C0C0
C0C0
C0C0
C0C0
6180
3F00
ENDCHAR
STARTCHAR 00DA
ENCODING 218
SWIDTH 720 0
DWIDTH 12 0
BBX 10 17 1 0
BITMAP
0380
0300
0600
0000
0000
C0C0
C0C0
C0C0
C0C0
C0C0
C0C0
C0C0
C0C0
C0C0
C0C0
6180
3F00
ENDCHAR
STARTCHAR 00DB
ENCODING 219
SWIDTH 720 0
DWIDTH 12 0
BBX 10 17 1 0
BITMAP
0C00
1E00
3300
0000
0000
C0C0
C0C0
C0C0
C0C0
C0C0
C0C0
C0C0
C0C0
C0C0
C0C0
6180
3F00
ENDCHAR
STARTCHAR 00DC
ENCODING 220
SWIDTH 720 0
DWIDTH 12 0
BBX 10 16 1 0
BITMAP
1B00
1B00
0000
0000
C0C0
C0C0
C0C0
C0C0
C0C0
C0C0
C0C0
C0C0
C0C0
C0C0
6180
3F00
ENDCHAR
STARTCHAR 00DD
ENCODING 221
SWIDTH 600 0
DWIDTH 10 0
BBX 10 17 0 0
BITMAP
0380
0300
0600
0000
0000
E1C0
6180
7380
3300
1E00
1E00
0C00
0C00
0C00
0C00
0C00
0C00
ENDCHAR
STARTCHAR 00DE
ENCODING 222
SWIDTH 600 0
DWIDTH 10 0
BBX 7 12 2 0
BITMAP
C0
C0
F8
CC
C6
C6
C6
CC
F8
C0
C0
C0
ENDCHAR
STARTCHAR 00DF
ENCODING 223
SWIDTH 660 0
DWIDTH 11 0
BBX 9 13 1 0
BITMAP
3E00
6300
C300
C300
C600
CC00
C300
C180
C180
C180
C180
C300
DE00
ENDCHAR
STARTCHAR 00E0
ENCODING 224
SWIDTH 600 0
DWIDTH 10 0
BBX 8 14 0 0
BITMAP
38
18
0C
00
00
7E
43
03
3F
63
C3
C3
C7
7B
ENDCHAR
STARTCHAR 00E1
ENCODING 225
SWIDTH 600 0
DWIDTH 10 0
BBX 8 14 0 0
BITMAP
07
06
0C
00
00
7E
43
03
3F
63
C3
C3
C7
7B
ENDCHAR
STARTCHAR 00E2
ENCODING 226
SWIDTH 600 0
DWIDTH 10 0
BBX 8 14 0 0
BITMAP
0C
1E
33
00
00
7E
43
03
3F
63
C3
C3
C7
7B
ENDCHAR
STARTCHAR 00E3
ENCODING 227
SWIDTH 600 0
DWIDTH 10 0
BBX 8 13 0 0
BITMAP
39
4E
00
00
7E
43
03
3F
63
C3
C3
C7
7B
ENDCHAR
STARTCHAR 00E4
ENCODING 228
SWIDTH 600 0
DWIDTH 10 0
BBX 8 13 0 0
BITMAP
36
36
00
00
7E
43
03
3F
63
C3
C3
C7
7B
ENDCHAR
STARTCHAR 00E5
ENCODING 229
SWIDTH 600 0
DWIDTH 10 0
BBX 8 17 0 0
BITMAP
1E
33
33
33
33
1E
00
00
7E
43
03
3F
63
C3
C3
C7
7B
ENDCHAR
STARTCHAR 00E6
ENCODING 230
SWIDTH 960 0
DWIDTH 16 0
BBX 15 9 0 0
BITMAP
7C78
438C
0306
3FFE
E300
C300
C380
C782
78FE
ENDCHAR
STARTCHAR 00E7
ENCODING 231
SWIDTH 540 0
DWIDTH 9 0
BBX 8 12 0 -3
BITMAP
3F
61
C0
C0
C0
C0
C0
63
3E
06
06
1C
ENDCHAR
STARTCHAR 00E8
ENCODING 232
SWIDTH 600 0
DWIDTH 10 0
BBX 9 14 0 0
BITMAP
3800
1800
0C00
0000
0000
3E00
6300
C180
C180
FF80
C000
C000
6080
1F80
ENDCHAR
STARTCHAR 00E9
ENCODING 233
SWIDTH 600 0
DWIDTH 10 0
BBX 9 14 0 0
BITMAP
0700
0600
0C00
0000
0000
3E00
6300
C180
C180
FF80
C000
C000
6080
1F80
ENDCHAR
STARTCHAR 00EA
ENCODING 234
SWIDTH 600 0
DWIDTH 10 0
BBX 9 14 0 0
BITMAP
0C00
1E00
3300
0000
0000
3E00
6300
C180
C180
FF80
C000
C000
6080
1F80
ENDCHAR
STARTCHAR 00EB
ENCODING 235
SWIDTH 600 0
DWIDTH 10 0
BBX 9 13 0 0
BITMAP
3600
3600
0000
0000
3E00
6300
C180
C180
FF80
C000
C000
6080
1F80
ENDCHAR
STARTCHAR 00EC
ENCODING 236
SWIDTH 300 0
DWIDTH 5 0
BBX 4 14 0 0
BITMAP
E0
60
30
00
00
60
60
60
60
60
60
60
60
60
ENDCHAR
STARTCHAR 00ED
ENCODING 237
SWIDTH 300 0
DWIDTH 5 0
BBX 4 14 1 0
BITMAP
70
60
C0
00
00
C0
C0
C0
C0
C0
C0
C0
C0
C0
ENDCHAR
STARTCHAR 00EE
ENCODING 238
SWIDTH 300 0
DWIDTH 5 0
BBX 6 14 -1 0
BITMAP
30
78
CC
00
00
30
30
30
30
30
30
30
30
30
ENDCHAR
STARTCHAR 00EF
ENCODING 239
SWIDTH 300 0
DWIDTH 5 0
BBX 6 13 -1 0
BITMAP
CC
CC
00
00
30
30
30
30
30
30
30
30
30
ENDCHAR
STARTCHAR 00F0
ENCODING 240
SWIDTH 600 0
DWIDTH 10 0
BBX 8 12 1 0
BITMAP
36
1C
26
06
3B
67
C3
C3
C3
C3
66
3C
ENDCHAR
STARTCHAR 00F1
ENCODING 241
SWIDTH 660 0
DWIDTH 11 0
BBX 8 13 1 0
BITMAP
39
4E
00
00
DE
E3
C3
C3
C3
C3
C3
C3
C3
ENDCHAR
STARTCHAR 00F2
ENCODING 242
SWIDTH 600 0
DWIDTH 10 0
BBX 9 14 0 0
BITMAP
3800
1800
0C00
0000
0000
3E00
6300
C180
C180
C180
C180
C180
6300
3E00
ENDCHAR
STARTCHAR 00F3
ENCODING 243
SWIDTH 600 0
DWIDTH 10 0
BBX 9 14 0 0
BITMAP
0E00
0C00
1800
0000
0000
3E00
6300
C180
C180
C180
C180
C180
6300
3E00
ENDCHAR
STARTCHAR 00F4
ENCODING 244
SWIDTH 600 0
DWIDTH 10 0
BBX 9 14 0 0
BITMAP
0C00
1E00
3300
0000
0000
3E00
6300
C180
C180
C180
C180
C180
6300
3E00
ENDCHAR
STARTCHAR 00F5
ENCODING 245
SWIDTH 600 0
DWIDTH 10 0
BBX 9 13 0 0
BITMAP
3900
4E00
0000
0000
3E00
6300
C180
C180
C180
C180
C180
6300
3E00
ENDCHAR
STARTCHAR 00F6
ENCODING 246
SWIDTH 600 0
DWIDTH 10 0
BBX 9 13 0 0
BITMAP
3600
3600
0000
0000
3E00
6300
C180
C180
C180
C180
C180
6300
3E00
ENDCHAR
STARTCHAR 00F7
ENCODING 247
SWIDTH 840 0
DWIDTH 14 0
BBX 12 11 1 0
BITMAP
0600
0600
0000
0000
0000
FFF0
0000
0000
0000
0600
0600
ENDCHAR
STARTCHAR 00F8
ENCODING 248
SWIDTH 600 0
DWIDTH 10 0
BBX 9 11 0 -1
BITMAP
0080
3F00
6300
C580
C580
C980
D180
D180
6300
7E00
8000
ENDCHAR
STARTCHAR 00F9
ENCODING 249
SWIDTH 660 0
DWIDTH 11 0
BBX 8 14 1 0
BITMAP
38
18
0C
00
00
C3
C3
C3
C3
C3
C3
C3
C7
7B
ENDCHAR
STARTCHAR 00FA
ENCODING 250
SWIDTH 660 0
DWIDTH 11 0
BBX 8 14 1 0
BITMAP
0E
0C
18
00
00
C3
C3
C3
C3
C3
C3
C3
C7
7B
ENDCHAR
STARTCHAR 00FB
ENCODING 251
SWIDTH 660 0
DWIDTH 11 0
BBX 8 14 1 0
BITMAP
18
3C
66
00
00
C3
C3
C3
C3
C3
C3
C3
C7
7B
ENDCHAR
STARTCHAR 00FC
ENCODING 252
SWIDTH 660 0
DWIDTH 11 0
BBX 8 13 1 0
BITMAP
36
36
00
00
C3
C3
C3
C3
C3
C3
C3
C7
7B
ENDCHAR
STARTCHAR 00FD
ENCODING 253
SWIDTH 600 0
DWIDTH 10 0
BBX 8 17 1 -3
BITMAP
07
06
0C
00
00
C3
66
66
66
24
3C
18
18
18
10
30
60
ENDCHAR
STARTCHAR 00FE
ENCODING 254
SWIDTH 660 0
DWIDTH 11 0
BBX 9 16 1 -3
BITMAP
C000
C000
C000
C000
DE00
E300
C180
C180
C180
C180
C180
C300
FE00
C000
C000
C000
ENDCHAR
STARTCHAR 00FF
ENCODING 255
SWIDTH 600 0
DWIDTH 10 0
BBX 8 16 1 -3
BITMAP
36
36
00
00
C3
66
66
66
24
3C
18
18
18
10
30
60
ENDCHAR
STARTCHAR 0100
ENCODING 256
SWIDTH 720 0
DWIDTH 12 0
BBX 12 15 0 0
BITMAP
1F80
0000
0000
0600
0F00
0F00
1980
1980
1980
30C0
3FC0
6060
6060
6060
C030
ENDCHAR
STARTCHAR 0101
ENCODING 257
SWIDTH 600 0
DWIDTH 10 0
BBX 8 12 0 0
BITMAP
3F
00
00
7E
43
03
3F
63
C3
C3
C7
7B
ENDCHAR
STARTCHAR 0102
ENCODING 258
SWIDTH 720 0
DWIDTH 12 0
BBX 12 17 0 0
BITMAP
1980
1980
0F00
0000
0000
0600
0F00
0F00
1980
1980
1980
30C0
3FC0
6060
6060
6060
C030
ENDCHAR
STARTCHAR 0103
ENCODING 259
SWIDTH 600 0
DWIDTH 10 0
BBX 8 14 0 0
BITMAP
66
66
3C
00
00
7E
43
03
3F
63
C3
C3
C7
7B
ENDCHAR
STARTCHAR 0104
ENCODING 260
SWIDTH 720 0
DWIDTH 12 0
BBX 14 15 0 -3
BITMAP
0600
0F00
0F00
1980
1980
1980
30C0
3FC0
6060
6060
6060
C030
0030
0030
001C
ENDCHAR
STARTCHAR 0105
ENCODING 261
SWIDTH 600 0
DWIDTH 10 0
BBX 10 12 0 -3
BITMAP
7E00
4300
0300
3F00
6300
C300
C300
C700
7B00
0300
0300
01C0
ENDCHAR
STARTCHAR 0106
ENCODING 262
SWIDTH 720 0
DWIDTH 12 0
BBX 10 17 1 0
BITMAP
0380
0300
0600
0000
0000
1F80
30C0
6040
C000
C000
C000
C000
C000
C000
6040
30C0
1F80
ENDCHAR
STARTCHAR 0107
ENCODING 263
SWIDTH 540 0
DWIDTH 9 0
BBX 8 14 0 0
BITMAP
07
06
0C
00
00
3F
61
C0
C0
C0
C0
C0
63
3E
ENDCHAR
STARTCHAR 0108
ENCODING 264
SWIDTH 720 0
DWIDTH 12 0
BBX 10 17 1 0
BITMAP
0600
0F00
1980
0000
0000
1F80
30C0
6040
C000
C000
C000
C000
C000
C000
6040
30C0
1F80
ENDCHAR
STARTCHAR 0109
ENCODING 265
SWIDTH 540 0
DWIDTH 9 0
BBX 8 14 0 0
BITMAP
0C
1E
33
00
00
3F
61
C0
C0
C0
C0
C0
63
3E
ENDCHAR
STARTCHAR 010A
ENCODING 266
SWIDTH 720 0
DWIDTH 12 0
BBX 10 16 1 0
BITMAP
0600
0600
0000
0000
1F80
30C0
6040
C000
C000
C000
C000
C000
C000
6040
30C0
1F80
ENDCHAR
STARTCHAR 010B
ENCODING 267
SWIDTH 540 0
DWIDTH 9 0
BBX 8 13 0 0
BITMAP
0C
0C
00
00
3F
61
C0
C0
C0
C0
C0
63
3E
ENDCHAR
STARTCHAR 010C
ENCODING 268
SWIDTH 720 0
DWIDTH 12 0
BBX 10 17 1 0
BITMAP
1980
0F00
0600
0000
0000
1F80
30C0
6040
C000
C000
C000
C000
C000
C000
6040
30C0
1F80
ENDCHAR
STARTCHAR 010D
ENCODING 269
SWIDTH 540 0
DWIDTH 9 0
BBX 8 14 0 0
BITMAP
33
1E
0C
00
00
3F
61
C0
C0
C0
C0
C0
63
3E
ENDCHAR
STARTCHAR 010E
ENCODING 270
SWIDTH 780 0
DWIDTH 13 0
BBX 10 17 2 0
BITMAP
6600
3C00
1800
0000
0000
FE00
C300
C180
C0C0
C0C0
C0C0
C0C0
C0C0
C0C0
C180
C300
FE00
ENDCHAR
STARTCHAR 010F
ENCODING 271
SWIDTH 660 0
DWIDTH 11 0
BBX 12 13 0 0
BITMAP
0330
0320
0360
0340
3F00
6300
C300
C300
C300
C300
C300
6700
3B00
ENDCHAR
STARTCHAR 0110
ENCODING 272
SWIDTH 780 0
DWIDTH 13 0
BBX 12 12 0 0
BITMAP
3F80
30C0
3060
3030
3030
FC30
3030
3030
3030
3060
30C0
3F80
ENDCHAR
STARTCHAR 0111
ENCODING 273
SWIDTH 660 0
DWIDTH 11 0
BBX 10 13 0 0
BITMAP
0180
0FC0
0180
0180
3F80
6180
C180
C180
C180
C180
C180
6380
3D80
ENDCHAR
STARTCHAR 0112
ENCODING 274
SWIDTH 660 0
DWIDTH 11 0
BBX 8 15 2 0
BITMAP
7E
00
00
FF
C0
C0
C0
C0
FF
C0
C0
C0
C0
C0
FF
ENDCHAR
STARTCHAR 0113
ENCODING 275
SWIDTH 600 0
DWIDTH 10 0
BBX 9 12 0 0
BITMAP
3F00
0000
0000
3E00
6300
C180
C180
FF80
C000
C000
6080
1F80
ENDCHAR
STARTCHAR 0114
ENCODING 276
SWIDTH 660 0
DWIDTH 11 0
BBX 8 17 2 0
BITMAP
66
66
3C
00
00
FF
C0
C0
C0
C0
FF
C0
C0
C0
C0
C0
FF
ENDCHAR
STARTCHAR 0115
ENCODING 277
SWIDTH 600 0
DWIDTH 10 0
BBX 9 14 0 0
BITMAP
3300
3300
1E00
0000
0000
3E00
6300
C180
C180
FF80
C000
C000
6080
1F80
ENDCHAR
STARTCHAR 0116
ENCODING 278
SWIDTH 660 0
DWIDTH 11 0
BBX 8 16 2 0
BITMAP
18
18
00
00
FF
C0
C0
C0
C0
FF
C0
C0
C0
C0
C0
FF
ENDCHAR
STARTCHAR 0117
ENCODING 279
SWIDTH 600 0
DWIDTH 10 0
BBX 9 13 0 0
BITMAP
0C00
0C00
0000
0000
3E00
6300
C180
C180
FF80
C000
C000
6080
1F80
ENDCHAR
STARTCHAR 0118
ENCODING 280
SWIDTH 660 0
DWIDTH 11 0
BBX 9 15 2 -3
BITMAP
FF00
C000
C000
C000
C000
FF00
C000
C000
C000
C000
C000
FF00
0600
0600
0380
ENDCHAR
STARTCHAR 0119
ENCODING 281
SWIDTH 600 0
DWIDTH 10 0
BBX 9 12 0 -3
BITMAP
3E00
6300
C180
C180
FF80
C000
C000
6080
1F80
0600
0600
0380
ENDCHAR
STARTCHAR 011A
ENCODING 282
SWIDTH 660 0
DWIDTH 11 0
BBX 8 17 2 0
BITMAP
66
3C
18
00
00
FF
C0
C0
C0
C0
FF
C0
C0
C0
C0
C0
FF
ENDCHAR
STARTCHAR 011B
ENCODING 283
SWIDTH 600 0
DWIDTH 10 0
BBX 9 14 0 0
BITMAP
3300
1E00
0C00
0000
0000
3E00
6300
C180
C180
FF80
C000
C000
6080
1F80
ENDCHAR
STARTCHAR 011C
ENCODING 284
SWIDTH 780 0
DWIDTH 13 0
BBX 11 17 1 0
BITMAP
0600
0F00
1980
0000
0000
0FC0
3060
6020
C000
C000
C000
C3E0
C060
C060
6060
3060
1F80
ENDCHAR
STARTCHAR 011D
ENCODING 285
SWIDTH 660 0
DWIDTH 11 0
BBX 9 17 0 -3
BITMAP
0C00
1E00
3300
0000
0000
3F80
6180
C180
C180
C180
C180
C180
6380
3D80
0180
4300
7E00
ENDCHAR
STARTCHAR 011E
ENCODING 286
SWIDTH 780 0
DWIDTH 13 0
BBX 11 17 1 0
BITMAP
1980
1980
0F00
0000
0000
0FC0
3060
6020
C000
C000
C000
C3E0
C060
C060
6060
3060
1F80
ENDCHAR
STARTCHAR 011F
ENCODING 287
SWIDTH 660 0
DWIDTH 11 0
BBX 9 17 0 -3
BITMAP
3300
3300
1E00
0000
0000
3F80
6180
C180
C180
C180
C180
C180
6380
3D80
0180
4300
7E00
ENDCHAR
STARTCHAR 0120
ENCODING 288
SWIDTH 780 0
DWIDTH 13 0
BBX 11 16 1 0
BITMAP
0600
0600
0000
0000
0FC0
3060
6020
C000
C000
C000
C3E0
C060
C060
6060
3060
1F80
ENDCHAR
STARTCHAR 0121
ENCODING 289
SWIDTH 660 0
DWIDTH 11 0
BBX 9 16 0 -3
BITMAP
0C00
0C00
0000
0000
3F80
6180
C180
C180
C180
C180
C180
6380
3D80
0180
4300
7E00
ENDCHAR
STARTCHAR 0122
ENCODING 290
SWIDTH 780 0
DWIDTH 13 0
BBX 11 15 1 -3
BITMAP
0FC0
3060
6020
C000
C000
C000
C3E0
C060
C060
6060
3060
1F80
0300
0300
0E00
ENDCHAR
STARTCHAR 0123
ENCODING 291
SWIDTH 660 0
DWIDTH 11 0
BBX 9 16 0 -3
BITMAP
0600
0C00
1C00
0000
3F80
6180
C180
C180
C180
C180
C180
6380
3D80
0180
4300
7E00
ENDCHAR
STARTCHAR 0124
ENCODING 292
SWIDTH 780 0
DWIDTH 13 0
BBX 9 17 2 0
BITMAP
0C00
1E00
3300
0000
0000
C180
C180
C180
C180
C180
FF80
C180
C180
C180
C180
C180
C180
ENDCHAR
STARTCHAR 0125
ENCODING 293
SWIDTH 660 0
DWIDTH 11 0
BBX 8 17 1 0
BITMAP
0C
1E
33
00
C0
C0
C0
C0
DE
E3
C3
C3
C3
C3
C3
C3
C3
ENDCHAR
STARTCHAR 0126
ENCODING 294
SWIDTH 780 0
DWIDTH 13 0
BBX 11 12 1 0
BITMAP
60C0
60C0
FFE0
60C0
60C0
7FC0
60C0
60C0
60C0
60C0
60C0
60C0
ENDCHAR
STARTCHAR 0127
ENCODING 295
SWIDTH 660 0
DWIDTH 11 0
BBX 9 13 0 0
BITMAP
6000
6000
FC00
6000
6F00
7180
6180
6180
6180
6180
6180
6180
6180
ENDCHAR
STARTCHAR 0128
ENCODING 296
SWIDTH 480 0
DWIDTH 8 0
BBX 6 16 1 0
BITMAP
64
98
00
00
FC
30
30
30
30
30
30
30
30
30
30
FC
ENDCHAR
STARTCHAR 0129
ENCODING 297
SWIDTH 300 0
DWIDTH 5 0
BBX 6 13 -1 0
BITMAP
64
98
00
00
30
30
30
30
30
30
30
30
30
ENDCHAR
STARTCHAR 012A
ENCODING 298
SWIDTH 480 0
DWIDTH 8 0
BBX 6 15 1 0
BITMAP
FC
00
00
FC
30
30
30
30
30
30
30
30
30
30
FC
ENDCHAR
STARTCHAR 012B
ENCODING 299
SWIDTH 300 0
DWIDTH 5 0
BBX 6 12 -1 0
BITMAP
FC
00
00
30
30
30
30
30
30
30
30
30
ENDCHAR
STARTCHAR 012C
ENCODING 300
SWIDTH 480 0
DWIDTH 8 0
BBX 6 16 1 0
BITMAP
CC
CC
78
00
FC
30
30
30
30
30
30
30
30
30
30
FC
ENDCHAR
STARTCHAR 012D
ENCODING 301
SWIDTH 300 0
DWIDTH 5 0
BBX 6 13 -1 0
BITMAP
CC
CC
78
00
30
30
30
30
30
30
30
30
30
ENDCHAR
STARTCHAR 012E
ENCODING 302
SWIDTH 480 0
DWIDTH 8 0
BBX 6 15 1 -3
BITMAP
FC
30
30
30
30
30
30
30
30
30
30
FC
30
30
1C
ENDCHAR
STARTCHAR 012F
ENCODING 303
SWIDTH 300 0
DWIDTH 5 0
BBX 4 15 0 -3
BITMAP
60
60
00
60
60
60
60
60
60
60
60
60
C0
C0
70
ENDCHAR
STARTCHAR 0130
ENCODING 304
SWIDTH 480 0
DWIDTH 8 0
BBX 6 16 1 0
BITMAP
30
30
00
00
FC
30
30
30
30
30
30
30
30
30
30
FC
ENDCHAR
STARTCHAR 0131
ENCODING 305
SWIDTH 300 0
DWIDTH 5 0
BBX 2 9 1 0
BITMAP
C0
C0
C0
C0
C0
C0
C0
C0
C0
ENDCHAR
STARTCHAR 0132
ENCODING 306
SWIDTH 900 0
DWIDTH 15 0
BBX 12 12 1 0
BITMAP
FCF0
3030
3030
3030
3030
3030
3030
3030
3030
3030
3030
FFC0
ENDCHAR
STARTCHAR 0133
ENCODING 307
SWIDTH 600 0
DWIDTH 10 0
BBX 8 15 1 -3
BITMAP
C3
C3
00
C7
C3
C3
C3
C3
C3
C3
C3
C3
03
03
1E
ENDCHAR
STARTCHAR 0134
ENCODING 308
SWIDTH 480 0
DWIDTH 8 0
BBX 7 17 0 0
BITMAP
18
3C
66
00
00
3C
0C
0C
0C
0C
0C
0C
0C
0C
0C
0C
F0
ENDCHAR
STARTCHAR 0135
ENCODING 309
SWIDTH 360 0
DWIDTH 6 0
BBX 6 17 -1 -3
BITMAP
38
28
44
00
00
38
18
18
18
18
18
18
18
18
18
18
F0
ENDCHAR
STARTCHAR 0136
ENCODING 310
SWIDTH 720 0
DWIDTH 12 0
BBX 10 15 2 -3
BITMAP
C180
C300
C600
CC00
D800
F000
F800
CC00
CE00
C700
C380
C1C0
0C00
0C00
3800
ENDCHAR
STARTCHAR 0137
ENCODING 311
SWIDTH 600 0
DWIDTH 10 0
BBX 9 16 1 -3
BITMAP
C000
C000
C000
C000
C300
C600
CC00
D800
F800
FC00
CE00
C700
C380
0C00
0C00
3800
ENDCHAR
STARTCHAR 0138
ENCODING 312
SWIDTH 600 0
DWIDTH 10 0
BBX 9 9 1 0
BITMAP
C300
C600
CC00
D800
F800
FC00
CE00
C700
C380
ENDCHAR
STARTCHAR 0139
ENCODING 313
SWIDTH 540 0
DWIDTH 9 0
BBX 7 17 2 0
BITMAP
70
60
C0
00
00
C0
C0
C0
C0
C0
C0
C0
C0
C0
C0
C0
FE
ENDCHAR
STARTCHAR 013A
ENCODING 314
SWIDTH 300 0
DWIDTH 5 0
BBX 5 17 1 0
BITMAP
38
30
60
00
C0
C0
C0
C0
C0
C0
C0
C0
C0
C0
C0
C0
C0
ENDCHAR
STARTCHAR 013B
ENCODING 315
SWIDTH 540 0
DWIDTH 9 0
BBX 7 15 2 -3
BITMAP
C0
C0
C0
C0
C0
C0
C0
C0
C0
C0
C0
FE
18
18
70
ENDCHAR
STARTCHAR 013C
ENCODING 316
SWIDTH 300 0
DWIDTH 5 0
BBX 4 16 1 -3
BITMAP
C0
C0
C0
C0
C0
C0
C0
C0
C0
C0
C0
C0
C0
30
30
E0
ENDCHAR
STARTCHAR 013D
ENCODING 317
SWIDTH 540 0
DWIDTH 9 0
BBX 7 13 2 0
BITMAP
0C
C8
D8
D0
C0
C0
C0
C0
C0
C0
C0
C0
FE
ENDCHAR
STARTCHAR 013E
ENCODING 318
SWIDTH 300 0
DWIDTH 5 0
BBX 6 13 1 0
BITMAP
CC
C8
D8
D0
C0
C0
C0
C0
C0
C0
C0
C0
C0
ENDCHAR
STARTCHAR 013F
ENCODING 319
SWIDTH 540 0
DWIDTH 9 0
BBX 7 12 2 0
BITMAP
C0
C0
C0
C0
C0
C0
CC
CC
C0
C0
C0
FE
ENDCHAR
STARTCHAR 0140
ENCODING 320
SWIDTH 480 0
DWIDTH 8 0
BBX 6 13 1 0
BITMAP
C0
C0
C0
C0
C0
C0
CC
CC
C0
C0
C0
C0
C0
ENDCHAR
STARTCHAR 0141
ENCODING 321
SWIDTH 600 0
DWIDTH 10 0
BBX 10 12 0 0
BITMAP
3000
3000
3000
3200
3600
3800
3000
F000
B000
3000
3000
3FC0
ENDCHAR
STARTCHAR 0142
ENCODING 322
SWIDTH 300 0
DWIDTH 5 0
BBX 5 13 0 0
BITMAP
60
60
60
60
68
78
60
E0
60
60
60
60
60
ENDCHAR
STARTCHAR 0143
ENCODING 323
SWIDTH 780 0
DWIDTH 13 0
BBX 9 17 2 0
BITMAP
0700
0600
0C00
0000
0000
E180
E180
D180
D180
D980
C980
CD80
C580
C580
C380
C380
C380
ENDCHAR
STARTCHAR 0144
ENCODING 324
SWIDTH 660 0
DWIDTH 11 0
BBX 8 14 1 0
BITMAP
07
06
0C
00
00
DE
E3
C3
C3
C3
C3
C3
C3
C3
ENDCHAR
STARTCHAR 0145
ENCODING 325
SWIDTH 780 0
DWIDTH 13 0
BBX 9 15 2 -3
BITMAP
E180
E180
D180
D180
D980
C980
CD80
C580
C580
C380
C380
C380
0C00
0C00
3800
ENDCHAR
STARTCHAR 0146
ENCODING 326
SWIDTH 660 0
DWIDTH 11 0
BBX 8 12 1 -3
BITMAP
DE
E3
C3
C3
C3
C3
C3
C3
C3
0C
0C
38
ENDCHAR
STARTCHAR 0147
ENCODING 327
SWIDTH 780 0
DWIDTH 13 0
BBX 9 17 2 0
BITMAP
3300
1E00
0C00
0000
0000
E180
E180
D180
D180
D980
C980
CD80
C580
C580
C380
C380
C380
ENDCHAR
STARTCHAR 0148
ENCODING 328
SWIDTH 660 0
DWIDTH 11 0
BBX 8 14 1 0
BITMAP
66
3C
18
00
00
DE
E3
C3
C3
C3
C3
C3
C3
C3
ENDCHAR
STARTCHAR 0149
ENCODING 329
SWIDTH 720 0
DWIDTH 12 0
BBX 11 13 -1 0
BITMAP
6000
4000
4000
C000
9BC0
1C60
1860
1860
1860
1860
1860
1860
1860
ENDCHAR
STARTCHAR 014A
ENCODING 330
SWIDTH 780 0
DWIDTH 13 0
BBX 9 15 2 -3
BITMAP
E180
E180
D180
D180
D980
C980
CD80
C580
C580
C380
C380
C180
0180
0180
0F00
ENDCHAR
STARTCHAR 014B
ENCODING 331
SWIDTH 660 0
DWIDTH 11 0
BBX 8 12 1 -3
BITMAP
DE
E3
C3
C3
C3
C3
C3
C3
C3
03
03
0E
ENDCHAR
STARTCHAR 014C
ENCODING 332
SWIDTH 780 0
DWIDTH 13 0
BBX 11 15 1 0
BITMAP
1F80
0000
0000
1F00
3180
60C0
C060
C060
C060
C060
C060
C060
60C0
3180
1F00
ENDCHAR
STARTCHAR 014D
ENCODING 333
SWIDTH 600 0
DWIDTH 10 0
BBX 9 12 0 0
BITMAP
3F00
0000
0000
3E00
6300
C180
C180
C180
C180
C180
6300
3E00
ENDCHAR
STARTCHAR 014E
ENCODING 334
SWIDTH 780 0
DWIDTH 13 0
BBX 11 17 1 0
BITMAP
1980
1980
0F00
0000
0000
1F00
3180
60C0
C060
C060
C060
C060
C060
C060
60C0
3180
1F00
ENDCHAR
STARTCHAR 014F
ENCODING 335
SWIDTH 600 0
DWIDTH 10 0
BBX 9 14 0 0
BITMAP
3300
3300
1E00
0000
0000
3E00
6300
C180
C180
C180
C180
C180
6300
3E00
ENDCHAR
STARTCHAR 0150
ENCODING 336
SWIDTH 780 0
DWIDTH 13 0
BBX 11 17 1 0
BITMAP
06C0
0480
0900
0000
0000
1F00
3180
60C0
C060
C060
C060
C060
C060
C060
60C0
3180
1F00
ENDCHAR
STARTCHAR 0151
ENCODING 337
SWIDTH 600 0
DWIDTH 10 0
BBX 9 14 0 0
BITMAP
0D80
0900
1200
0000
0000
3E00
6300
C180
C180
C180
C180
C180
6300
3E00
ENDCHAR
STARTCHAR 0152
ENCODING 338
SWIDTH 1080 0
DWIDTH 18 0
BBX 16 12 1 0
BITMAP
0FFF
30C0
60C0
C0C0
C0C0
C0FF
C0C0
C0C0
C0C0
60C0
30C0
0FFF
ENDCHAR
STARTCHAR 0153
ENCODING 339
SWIDTH 1020 0
DWIDTH 17 0
BBX 16 9 0 0
BITMAP
3E3C
63C6
C183
C183
C1FF
C180
C180
63C1
3E3F
ENDCHAR
STARTCHAR 0154
ENCODING 340
SWIDTH 720 0
DWIDTH 12 0
BBX 10 17 2 0
BITMAP
0E00
0C00
1800
0000
0000
FC00
C700
C300
C300
C300
C600
FC00
CC00
C600
C300
C180
C1C0
ENDCHAR
STARTCHAR 0155
ENCODING 341
SWIDTH 420 0
DWIDTH 7 0
BBX 6 14 1 0
BITMAP
38
30
60
00
00
DC
E0
C0
C0
C0
C0
C0
C0
C0
ENDCHAR
STARTCHAR 0156
ENCODING 342
SWIDTH 720 0
DWIDTH 12 0
BBX 10 15 2 -3
BITMAP
FC00
C700
C300
C300
C300
C600
FC00
CC00
C600
C300
C180
C1C0
0C00
0C00
3800
ENDCHAR
STARTCHAR 0157
ENCODING 343
SWIDTH 420 0
DWIDTH 7 0
BBX 6 12 1 -3
BITMAP
DC
E0
C0
C0
C0
C0
C0
C0
C0
30
30
E0
ENDCHAR
STARTCHAR 0158
ENCODING 344
SWIDTH 720 0
DWIDTH 12 0
BBX 10 17 2 0
BITMAP
6600
3C00
1800
0000
0000
FC00
C700
C300
C300
C300
C600
FC00
CC00
C600
C300
C180
C1C0
ENDCHAR
STARTCHAR 0159
ENCODING 345
SWIDTH 420 0
DWIDTH 7 0
BBX 6 14 1 0
BITMAP
CC
78
30
00
00
DC
E0
C0
C0
C0
C0
C0
C0
C0
ENDCHAR
STARTCHAR 015A
ENCODING 346
SWIDTH 720 0
DWIDTH 12 0
BBX 10 17 1 0
BITMAP
0700
0600
0C00
0000
0000
3F00
6180
C080
C000
E000
7E00
1F80
01C0
00C0
80C0
C180
7F00
ENDCHAR
STARTCHAR 015B
ENCODING 347
SWIDTH 540 0
DWIDTH 9 0
BBX 8 14 0 0
BITMAP
0E
0C
18
00
00
3E
63
C1
E0
7E
07
83
C6
7C
ENDCHAR
STARTCHAR 015C
ENCODING 348
SWIDTH 720 0
DWIDTH 12 0
BBX 10 17 1 0
BITMAP
0C00
1E00
3300
0000
0000
3F00
6180
C080
C000
E000
7E00
1F80
01C0
00C0
80C0
C180
7F00
ENDCHAR
STARTCHAR 015D
ENCODING 349
SWIDTH 540 0
DWIDTH 9 0
BBX 8 14 0 0
BITMAP
18
3C
66
00
00
3E
63
C1
E0
7E
07
83
C6
7C
ENDCHAR
STARTCHAR 015E
ENCODING 350
SWIDTH 720 0
DWIDTH 12 0
BBX 10 15 1 -3
BITMAP
3F00
6180
C080
C000
E000
7E00
1F80
01C0
00C0
80C0
C180
7F00
0600
0600
1C00
ENDCHAR
STARTCHAR 015F
ENCODING 351
SWIDTH 540 0
DWIDTH 9 0
BBX 8 12 0 -3
BITMAP
3E
63
C1
E0
7E
07
83
C6
7C
0C
0C
38
ENDCHAR
STARTCHAR 0160
ENCODING 352
SWIDTH 720 0
DWIDTH 12 0
BBX 10 17 1 0
BITMAP
3300
1E00
0C00
0000
0000
3F00
6180
C080
C000
E000
7E00
1F80
01C0
00C0
80C0
C180
7F00
ENDCHAR
STARTCHAR 0161
ENCODING 353
SWIDTH 540 0
DWIDTH 9 0
BBX 8 14 0 0
BITMAP
66
3C
18
00
00
3E
63
C1
E0
7E
07
83
C6
7C
ENDCHAR
STARTCHAR 0162
ENCODING 354
SWIDTH 600 0
DWIDTH 10 0
BBX 10 15 0 -3
BITMAP
FFC0
0C00
0C00
0C00
0C00
0C00
0C00
0C00
0C00
0C00
0C00
0C00
0C00
0C00
3800
ENDCHAR
STARTCHAR 0163
ENCODING 355
SWIDTH 420 0
DWIDTH 7 0
BBX 7 15 0 -3
BITMAP
60
60
60
FE
60
60
60
60
60
60
60
3E
0C
0C
38
ENDCHAR
STARTCHAR 0164
ENCODING 356
SWIDTH 600 0
DWIDTH 10 0
BBX 10 17 0 0
BITMAP
3300
1E00
0C00
0000
0000
FFC0
0C00
0C00
0C00
0C00
0C00
0C00
0C00
0C00
0C00
0C00
0C00
ENDCHAR
STARTCHAR 0165
ENCODING 357
SWIDTH 420 0
DWIDTH 7 0
BBX 7 15 0 0
BITMAP
06
04
0C
68
60
60
FE
60
60
60
60
60
60
60
3E
ENDCHAR
STARTCHAR 0166
ENCODING 358
SWIDTH 600 0
DWIDTH 10 0
BBX 10 12 0 0
BITMAP
FFC0
0C00
0C00
0C00
0C00
7F80
0C00
0C00
0C00
0C00
0C00
0C00
ENDCHAR
STARTCHAR 0167
ENCODING 359
SWIDTH 420 0
DWIDTH 7 0
BBX 7 12 0 0
BITMAP
60
60
60
FE
60
60
60
FC
60
60
60
3E
ENDCHAR
STARTCHAR 0168
ENCODING 360
SWIDTH 720 0
DWIDTH 12 0
BBX 10 16 1 0
BITMAP
1C80
2700
0000
0000
C0C0
C0C0
C0C0
C0C0
C0C0
C0C0
C0C0
C0C0
C0C0
C0C0
6180
3F00
ENDCHAR
STARTCHAR 0169
ENCODING 361
SWIDTH 660 0
DWIDTH 11 0
BBX 8 13 1 0
BITMAP
39
4E
00
00
C3
C3
C3
C3
C3
C3
C3
C7
7B
ENDCHAR
STARTCHAR 016A
ENCODING 362
SWIDTH 720 0
DWIDTH 12 0
BBX 10 15 1 0
BITMAP
3F00
0000
0000
C0C0
C0C0
C0C0
C0C0
C0C0
C0C0
C0C0
C0C0
C0C0
C0C0
6180
3F00
ENDCHAR
STARTCHAR 016B
ENCODING 363
SWIDTH 660 0
DWIDTH 11 0
BBX 8 12 1 0
BITMAP
7E
00
00
C3
C3
C3
C3
C3
C3
C3
C7
7B
ENDCHAR
STARTCHAR 016C
ENCODING 364
SWIDTH 720 0
DWIDTH 12 0
BBX 10 17 1 0
BITMAP
3300
3300
1E00
0000
0000
C0C0
C0C0
C0C0
C0C0
C0C0
C0C0
C0C0
C0C0
C0C0
C0C0
6180
3F00
ENDCHAR
STARTCHAR 016D
ENCODING 365
SWIDTH 660 0
DWIDTH 11 0
BBX 8 14 1 0
BITMAP
66
66
3C
00
00
C3
C3
C3
C3
C3
C3
C3
C7
7B
ENDCHAR
STARTCHAR 016E
ENCODING 366
SWIDTH 720 0
DWIDTH 12 0
BBX 10 17 1 0
BITMAP
1E00
3300
3300
3300
3300
DEC0
C0C0
C0C0
C0C0
C0C0
C0C0
C0C0
C0C0
C0C0
C0C0
6180
3F00
ENDCHAR
STARTCHAR 016F
ENCODING 367
SWIDTH 660 0
DWIDTH 11 0
BBX 8 17 1 0
BITMAP
3C
66
66
66
66
3C
00
00
C3
C3
C3
C3
C3
C3
C3
C7
7B
ENDCHAR
STARTCHAR 0170
ENCODING 368
SWIDTH 720 0
DWIDTH 12 0
BBX 10 17 1 0
BITMAP
0D80
0900
1200
0000
0000
C0C0
C0C0
C0C0
C0C0
C0C0
C0C0
C0C0
C0C0
C0C0
C0C0
6180
3F00
ENDCHAR
STARTCHAR 0171
ENCODING 369
SWIDTH 660 0
DWIDTH 11 0
BBX 8 14 1 0
BITMAP
1B
12
24
00
00
C3
C3
C3
C3
C3
C3
C3
C7
7B
ENDCHAR
STARTCHAR 0172
ENCODING 370
SWIDTH 720 0
DWIDTH 12 0
BBX 10 15 1 -3
BITMAP
C0C0
C0C0
C0C0
C0C0
C0C0
C0C0
C0C0
C0C0
C0C0
C0C0
6180
3F00
0600
0600
0380
ENDCHAR
STARTCHAR 0173
ENCODING 371
SWIDTH 660 0
DWIDTH 11 0
BBX 10 12 1 -3
BITMAP
C300
C300
C300
C300
C300
C300
C300
C700
7B00
0300
0300
01C0
ENDCHAR
STARTCHAR 0174
ENCODING 372
SWIDTH 1020 0
DWIDTH 17 0
BBX 15 17 1 0
BITMAP
0180
03C0
0660
0000
0000
C106
C386
628C
628C
628C
66CC
2448
3458
3458
1C78
1830
1830
ENDCHAR
STARTCHAR 0175
ENCODING 373
SWIDTH 840 0
DWIDTH 14 0
BBX 12 14 1 0
BITMAP
0600
0F00
1980
0000
0000
C630
C630
4620
6F60
6960
6960
39C0
30C0
30C0
ENDCHAR
STARTCHAR 0176
ENCODING 374
SWIDTH 600 0
DWIDTH 10 0
BBX 10 17 0 0
BITMAP
0C00
1E00
3300
0000
0000
E1C0
6180
7380
3300
1E00
1E00
0C00
0C00
0C00
0C00
0C00
0C00
ENDCHAR
STARTCHAR 0177
ENCODING 375
SWIDTH 600 0
DWIDTH 10 0
BBX 8 17 1 -3
BITMAP
18
3C
66
00
00
C3
66
66
66
24
3C
18
18
18
10
30
60
ENDCHAR
STARTCHAR 0178
ENCODING 376
SWIDTH 600 0
DWIDTH 10 0
BBX 10 16 0 0
BITMAP
1B00
1B00
0000
0000
E1C0
6180
7380
3300
1E00
1E00
0C00
0C00
0C00
0C00
0C00
0C00
ENDCHAR
STARTCHAR 0179
ENCODING 377
SWIDTH 720 0
DWIDTH 12 0
BBX 10 17 1 0
BITMAP
0700
0600
0C00
0000
0000
FFC0
01C0
0180
0300
0600
0C00
0C00
1800
3000
6000
E000
FFC0
ENDCHAR
STARTCHAR 017A
ENCODING 378
SWIDTH 540 0
DWIDTH 9 0
BBX 7 14 1 0
BITMAP
1C
18
30
00
00
FE
06
0C
18
10
30
60
C0
FE
ENDCHAR
STARTCHAR 017B
ENCODING 379
SWIDTH 720 0
DWIDTH 12 0
BBX 10 16 1 0
BITMAP
0C00
0C00
0000
0000
FFC0
01C0
0180
0300
0600
0C00
0C00
1800
3000
6000
E000
FFC0
ENDCHAR
STARTCHAR 017C
ENCODING 380
SWIDTH 540 0
DWIDTH 9 0
BBX 7 13 1 0
BITMAP
18
18
00
00
FE
06
0C
18
10
30
60
C0
FE
ENDCHAR
STARTCHAR 017D
ENCODING 381
SWIDTH 720 0
DWIDTH 12 0
BBX 10 17 1 0
BITMAP
3300
1E00
0C00
0000
0000
FFC0
01C0
0180
0300
0600
0C00
0C00
1800
3000
6000
E000
FFC0
ENDCHAR
STARTCHAR 017E
ENCODING 382
SWIDTH 540 0
DWIDTH 9 0
BBX 7 14 1 0
BITMAP
66
3C
18
00
00
FE
06
0C
18
10
30
60
C0
FE
ENDCHAR
STARTCHAR 017F
ENCODING 383
SWIDTH 300 0
DWIDTH 5 0
BBX 5 13 1 0
BITMAP
78
C0
C0
C0
C0
C0
C0
C0
C0
C0
C0
C0
C0
ENDCHAR
STARTCHAR 0192
ENCODING 402
SWIDTH 660 0
DWIDTH 11 0
BBX 11 14 0 -2
BITMAP
01E0
0300
0300
0600
0600
1F80
0600
0600
0C00
0C00
0C00
0C00
1800
F000
ENDCHAR
STARTCHAR 01A0
ENCODING 416
SWIDTH 780 0
DWIDTH 13 0
BBX 12 12 1 0
BITMAP
1F30
31B0
60F0
C060
C060
C060
C060
C060
C060
60C0
3180
1F00
ENDCHAR
STARTCHAR 01A1
ENCODING 417
SWIDTH 600 0
DWIDTH 10 0
BBX 10 12 0 0
BITMAP
00C0
00C0
00C0
3F80
6300
C180
C180
C180
C180
C180
6300
3E00
ENDCHAR
STARTCHAR 01AF
ENCODING 431
SWIDTH 780 0
DWIDTH 13 0
BBX 13 15 1 0
BITMAP
0018
0018
0018
C0F0
C0C0
C0C0
C0C0
C0C0
C0C0
C0C0
C0C0
C0C0
C0C0
6180
3F00
ENDCHAR
STARTCHAR 01B0
ENCODING 432
SWIDTH 660 0
DWIDTH 11 0
BBX 11 12 1 0
BITMAP
0060
0060
0060
C3C0
C300
C300
C300
C300
C300
C300
C700
7B00
ENDCHAR
STARTCHAR 01FA
ENCODING 506
SWIDTH 720 0
DWIDTH 12 0
BBX 12 17 0 0
BITMAP
0300
0600
0F00
1980
1980
0F00
0F00
0F00
1980
1980
1180
30C0
3FC0
6060
6060
6060
C030
ENDCHAR
STARTCHAR 01FB
ENCODING 507
SWIDTH 600 0
DWIDTH 10 0
BBX 8 14 0 0
BITMAP
0C
18
1C
36
36
7E
43
03
3F
63
C3
C3
C7
7B
ENDCHAR
STARTCHAR 01FC
ENCODING 508
SWIDTH 1020 0
DWIDTH 17 0
BBX 16 17 0 0
BITMAP
0038
0030
0060
0000
0000
07FF
0EC0
0CC0
0CC0
18C0
18FF
3FC0
30C0
70C0
60C0
60C0
C0FF
ENDCHAR
STARTCHAR 01FD
ENCODING 509
SWIDTH 960 0
DWIDTH 16 0
BBX 15 14 0 0
BITMAP
00E0
00C0
0180
0000
0000
7C78
438C
0306
3FFE
E300
C300
C380
C782
78FE
ENDCHAR
STARTCHAR 01FE
ENCODING 510
SWIDTH 780 0
DWIDTH 13 0
BBX 11 18 1 -1
BITMAP
0380
0300
0600
0000
0020
1F40
3180
61C0
C260
C260
C460
C460
C860
D060
70C0
3180
5F00
8000
ENDCHAR
STARTCHAR 01FF
ENCODING 511
SWIDTH 600 0
DWIDTH 10 0
BBX 9 15 0 -1
BITMAP
0700
0600
0C00
0000
0080
3F00
6300
C580
C580
C980
D180
D180
6300
7E00
8000
ENDCHAR
STARTCHAR 02C6
ENCODING 710
SWIDTH 660 0
DWIDTH 11 0
BBX 6 3 3 11
BITMAP
30
78
CC
ENDCHAR
STARTCHAR 02C7
ENCODING 711
SWIDTH 660 0
DWIDTH 11 0
BBX 6 3 3 11
BITMAP
CC
78
30
ENDCHAR
STARTCHAR 02C9
ENCODING 713
SWIDTH 660 0
DWIDTH 11 0
BBX 6 1 2 11
BITMAP
FC
ENDCHAR
STARTCHAR 02D8
ENCODING 728
SWIDTH 660 0
DWIDTH 11 0
BBX 6 3 2 11
BITMAP
CC
CC
78
ENDCHAR
STARTCHAR 02D9
ENCODING 729
SWIDTH 660 0
DWIDTH 11 0
BBX 2 2 5 11
BITMAP
C0
C0
ENDCHAR
STARTCHAR 02DA
ENCODING 730
SWIDTH 660 0
DWIDTH 11 0
BBX 6 6 3 11
BITMAP
78
CC
CC
CC
CC
78
ENDCHAR
STARTCHAR 02DB
ENCODING 731
SWIDTH 660 0
DWIDTH 11 0
BBX 4 3 3 -3
BITMAP
C0
C0
70
ENDCHAR
STARTCHAR 02DC
ENCODING 732
SWIDTH 660 0
DWIDTH 11 0
BBX 7 2 2 11
BITMAP
72
9C
ENDCHAR
STARTCHAR 02DD
ENCODING 733
SWIDTH 660 0
DWIDTH 11 0
BBX 6 3 3 11
BITMAP
6C
48
90
ENDCHAR
STARTCHAR 0300
ENCODING 768
SWIDTH 0 0
DWIDTH 0 0
BBX 4 3 3 11
BITMAP
E0
60
30
ENDCHAR
STARTCHAR 0301
ENCODING 769
SWIDTH 0 0
DWIDTH 0 0
BBX 4 3 4 11
BITMAP
70
60
C0
ENDCHAR
STARTCHAR 0303
ENCODING 771
SWIDTH 0 0
DWIDTH 0 0
BBX 7 2 2 11
BITMAP
72
9C
ENDCHAR
STARTCHAR 0309
ENCODING 777
SWIDTH 0 0
DWIDTH 0 0
BBX 3 3 4 11
BITMAP
E0
20
40
ENDCHAR
STARTCHAR 0323
ENCODING 803
SWIDTH 0 0
DWIDTH 0 0
BBX 2 2 5 -3
BITMAP
C0
C0
ENDCHAR
STARTCHAR 037E
ENCODING 894
SWIDTH 480 0
DWIDTH 8 0
BBX 4 12 2 -3
BITMAP
60
60
00
00
00
00
00
70
60
60
C0
C0
ENDCHAR
STARTCHAR 0384
ENCODING 900
SWIDTH 660 0
DWIDTH 11 0
BBX 2 3 4 11
BITMAP
C0
C0
C0
ENDCHAR
STARTCHAR 0385
ENCODING 901
SWIDTH 660 0
DWIDTH 11 0
BBX 8 3 1 11
BITMAP
18
DB
DB
ENDCHAR
STARTCHAR 0386
ENCODING 902
SWIDTH 720 0
DWIDTH 12 0
BBX 12 12 0 0
BITMAP
C600
CF00
CF00
1980
1980
1980
30C0
3FC0
6060
6060
6060
C030
ENDCHAR
STARTCHAR 0387
ENCODING 903
SWIDTH 480 0
DWIDTH 8 0
BBX 2 2 3 7
BITMAP
C0
C0
ENDCHAR
STARTCHAR 0388
ENCODING 904
SWIDTH 780 0
DWIDTH 13 0
BBX 12 12 0 0
BITMAP
CFF0
CC00
CC00
0C00
0C00
0FF0
0C00
0C00
0C00
0C00
0C00
0FF0
ENDCHAR
STARTCHAR 0389
ENCODING 905
SWIDTH 900 0
DWIDTH 15 0
BBX 13 12 0 0
BITMAP
CC18
CC18
CC18
0C18
0C18
0FF8
0C18
0C18
0C18
0C18
0C18
0C18
ENDCHAR
STARTCHAR 038A
ENCODING 906
SWIDTH 540 0
DWIDTH 9 0
BBX 9 12 0 0
BITMAP
DF80
C600
C600
0600
0600
0600
0600
0600
0600
0600
0600
1F80
ENDCHAR
STARTCHAR 038C
ENCODING 908
SWIDTH 900 0
DWIDTH 15 0
BBX 14 12 0 0
BITMAP
C3E0
C630
CC18
180C
180C
180C
180C
180C
180C
0C18
0630
03E0
ENDCHAR
STARTCHAR 038E
ENCODING 910
SWIDTH 780 0
DWIDTH 13 0
BBX 12 12 0 0
BITMAP
F870
D860
DCE0
0CC0
0780
0780
0300
0300
0300
0300
0300
0300
ENDCHAR
STARTCHAR 038F
ENCODING 911
SWIDTH 960 0
DWIDTH 16 0
BBX 15 12 0 0
BITMAP
C3F0
C618
CC0C
1806
1806
1806
1806
0C0C
0E1C
0330
0330
1F3E
ENDCHAR
STARTCHAR 0390
ENCODING 912
SWIDTH 300 0
DWIDTH 5 0
BBX 8 13 -2 0
BITMAP
18
DB
DB
00
18
18
18
18
18
18
18
18
18
ENDCHAR
STARTCHAR 0391
ENCODING 913
SWIDTH 720 0
DWIDTH 12 0
BBX 12 12 0 0
BITMAP
0600
0F00
0F00
1980
1980
1980
30C0
3FC0
6060
6060
6060
C030
ENDCHAR
STARTCHAR 0392
ENCODING 914
SWIDTH 720 0
DWIDTH 12 0
BBX 9 12 2 0
BITMAP
FE00
C300
C300
C300
C600
FE00
C300
C180
C180
C180
C300
FE00
ENDCHAR
STARTCHAR 0393
ENCODING 915
SWIDTH 600 0
DWIDTH 10 0
BBX 8 12 2 0
BITMAP
FF
C0
C0
C0
C0
C0
C0
C0
C0
C0
C0
C0
ENDCHAR
STARTCHAR 0394
ENCODING 916
SWIDTH 720 0
DWIDTH 12 0
BBX 12 12 0 0
BITMAP
0600
0F00
0F00
1F80
1980
1980
30C0
30C0
70E0
6060
6060
FFF0
ENDCHAR
STARTCHAR 0395
ENCODING 917
SWIDTH 660 0
DWIDTH 11 0
BBX 8 12 2 0
BITMAP
FF
C0
C0
C0
C0
FF
C0
C0
C0
C0
C0
FF
ENDCHAR
STARTCHAR 0396
ENCODING 918
SWIDTH 720 0
DWIDTH 12 0
BBX 10 12 1 0
BITMAP
FFC0
01C0
0180
0300
0600
0C00
0C00
1800
3000
6000
E000
FFC0
ENDCHAR
STARTCHAR 0397
ENCODING 919
SWIDTH 780 0
DWIDTH 13 0
BBX 9 12 2 0
BITMAP
C180
C180
C180
C180
C180
FF80
C180
C180
C180
C180
C180
C180
ENDCHAR
STARTCHAR 0398
ENCODING 920
SWIDTH 780 0
DWIDTH 13 0
BBX 11 12 1 0
BITMAP
1F00
3180
60C0
C060
C060
DF60
C060
C060
C060
60C0
3180
1F00
ENDCHAR
STARTCHAR 0399
ENCODING 921
SWIDTH 480 0
DWIDTH 8 0
BBX 6 12 1 0
BITMAP
FC
30
30
30
30
30
30
30
30
30
30
FC
ENDCHAR
STARTCHAR 039A
ENCODING 922
SWIDTH 720 0
DWIDTH 12 0
BBX 10 12 2 0
BITMAP
C180
C300
C600
CC00
D800
F000
F800
CC00
CE00
C700
C380
C1C0
ENDCHAR
STARTCHAR 039B
ENCODING 923
SWIDTH 720 0
DWIDTH 12 0
BBX 12 12 0 0
BITMAP
0600
0F00
0F00
1F80
1980
1980
30C0
30C0
70E0
6060
6060
C030
ENDCHAR
STARTCHAR 039C
ENCODING 924
SWIDTH 840 0
DWIDTH 14 0
BBX 10 12 2 0
BITMAP
E1C0
E1C0
E1C0
D2C0
D2C0
DAC0
CCC0
CCC0
CCC0
C0C0
C0C0
C0C0
ENDCHAR
STARTCHAR 039D
ENCODING 925
SWIDTH 780 0
DWIDTH 13 0
BBX 9 12 2 0
BITMAP
E180
E180
D180
D180
D980
C980
CD80
C580
C580
C380
C380
C380
ENDCHAR
STARTCHAR 039E
ENCODING 926
SWIDTH 660 0
DWIDTH 11 0
BBX 9 12 1 0
BITMAP
FF80
0000
0000
0000
0000
7F00
0000
0000
0000
0000
0000
FF80
ENDCHAR
STARTCHAR 039F
ENCODING 927
SWIDTH 780 0
DWIDTH 13 0
BBX 11 12 1 0
BITMAP
1F00
3180
60C0
C060
C060
C060
C060
C060
C060
60C0
3180
1F00
ENDCHAR
STARTCHAR 03A0
ENCODING 928
SWIDTH 780 0
DWIDTH 13 0
BBX 9 12 2 0
BITMAP
FF80
C180
C180
C180
C180
C180
C180
C180
C180
C180
C180
C180
ENDCHAR
STARTCHAR 03A1
ENCODING 929
SWIDTH 600 0
DWIDTH 10 0
BBX 7 12 2 0
BITMAP
F8
CC
C6
C6
C6
C6
CC
F8
C0
C0
C0
C0
ENDCHAR
STARTCHAR 03A3
ENCODING 931
SWIDTH 660 0
DWIDTH 11 0
BBX 9 12 1 0
BITMAP
FF80
E000
3000
1800
0C00
0600
0C00
1800
3000
6000
E000
FF80
ENDCHAR
STARTCHAR 03A4
ENCODING 932
SWIDTH 600 0
DWIDTH 10 0
BBX 10 12 0 0
BITMAP
FFC0
0C00
0C00
0C00
0C00
0C00
0C00
0C00
0C00
0C00
0C00
0C00
ENDCHAR
STARTCHAR 03A5
ENCODING 933
SWIDTH 600 0
DWIDTH 10 0
BBX 10 12 0 0
BITMAP
E1C0
6180
7380
3300
1E00
1E00
0C00
0C00
0C00
0C00
0C00
0C00
ENDCHAR
STARTCHAR 03A6
ENCODING 934
SWIDTH 840 0
DWIDTH 14 0
BBX 12 12 1 0
BITMAP
0600
1F80
6660
6660
C630
C630
C630
C630
6660
6660
1F80
0600
ENDCHAR
STARTCHAR 03A7
ENCODING 935
SWIDTH 720 0
DWIDTH 12 0
BBX 10 12 1 0
BITMAP
E1C0
6180
3300
3300
1E00
0C00
0C00
1E00
3300
3300
6180
E1C0
ENDCHAR
STARTCHAR 03A8
ENCODING 936
SWIDTH 900 0
DWIDTH 15 0
BBX 12 12 1 0
BITMAP
C630
C630
C630
C630
C630
C630
C630
6660
3FC0
0600
0600
0600
ENDCHAR
STARTCHAR 03A9
ENCODING 937
SWIDTH 840 0
DWIDTH 14 0
BBX 12 12 1 0
BITMAP
1F80
30C0
6060
C030
C030
C030
C030
6060
70E0
1980
1980
F9F0
ENDCHAR
STARTCHAR 03AA
ENCODING 938
SWIDTH 480 0
DWIDTH 8 0
BBX 6 16 1 0
BITMAP
6C
6C
00
00
FC
30
30
30
30
30
30
30
30
30
30
FC
ENDCHAR
STARTCHAR 03AB
ENCODING 939
SWIDTH 600 0
DWIDTH 10 0
BBX 10 16 0 0
BITMAP
1B00
1B00
0000
0000
E1C0
6180
7380
3300
1E00
1E00
0C00
0C00
0C00
0C00
0C00
0C00
ENDCHAR
STARTCHAR 03AC
ENCODING 940
SWIDTH 660 0
DWIDTH 11 0
BBX 9 14 0 0
BITMAP
0C00
0C00
0C00
0000
0000
3F80
6180
C180
C180
C180
C180
C180
6380
3D80
ENDCHAR
STARTCHAR 03AD
ENCODING 941
SWIDTH 480 0
DWIDTH 8 0
BBX 7 14 0 0
BITMAP
18
18
18
00
00
7E
C2
C0
C0
38
C0
C0
C2
7E
ENDCHAR
STARTCHAR 03AE
ENCODING 942
SWIDTH 660 0
DWIDTH 11 0
BBX 8 17 1 -3
BITMAP
18
18
18
00
00
DE
E3
C3
C3
C3
C3
C3
C3
C3
03
03
03
ENDCHAR
STARTCHAR 03AF
ENCODING 943
SWIDTH 300 0
DWIDTH 5 0
BBX 2 14 1 0
BITMAP
C0
C0
C0
00
00
C0
C0
C0
C0
C0
C0
C0
C0
C0
ENDCHAR
STARTCHAR 03B0
ENCODING 944
SWIDTH 660 0
DWIDTH 11 0
BBX 8 14 1 0
BITMAP
18
DB
DB
00
00
C3
C3
C3
C3
C3
C3
C3
66
3C
ENDCHAR
STARTCHAR 03B1
ENCODING 945
SWIDTH 660 0
DWIDTH 11 0
BBX 9 9 0 0
BITMAP
3F80
6180
C180
C180
C180
C180
C180
6380
3D80
ENDCHAR
STARTCHAR 03B2
ENCODING 946
SWIDTH 660 0
DWIDTH 11 0
BBX 9 16 1 -3
BITMAP
3E00
6300
C300
C300
C600
DC00
C300
C180
C180
C180
C180
C300
FE00
C000
C000
C000
ENDCHAR
STARTCHAR 03B3
ENCODING 947
SWIDTH 600 0
DWIDTH 10 0
BBX 10 12 0 -3
BITMAP
C0C0
6180
6180
3300
3300
1E00
1E00
0C00
0C00
0C00
0C00
0C00
ENDCHAR
STARTCHAR 03B4
ENCODING 948
SWIDTH 600 0
DWIDTH 10 0
BBX 9 13 0 0
BITMAP
7F00
7000
3800
0C00
3E00
6300
C180
C180
C180
C180
C180
6300
3E00
ENDCHAR
STARTCHAR 03B5
ENCODING 949
SWIDTH 480 0
DWIDTH 8 0
BBX 7 9 0 0
BITMAP
7E
C2
C0
C0
38
C0
C0
C2
7E
ENDCHAR
STARTCHAR 03B6
ENCODING 950
SWIDTH 480 0
DWIDTH 8 0
BBX 8 16 0 -3
BITMAP
7F
06
0C
18
30
60
60
C0
C0
C0
C0
60
3E
03
03
06
ENDCHAR
STARTCHAR 03B7
ENCODING 951
SWIDTH 660 0
DWIDTH 11 0
BBX 8 12 1 -3
BITMAP
DE
E3
C3
C3
C3
C3
C3
C3
C3
03
03
03
ENDCHAR
STARTCHAR 03B8
ENCODING 952
SWIDTH 660 0
DWIDTH 11 0
BBX 10 13 0 0
BITMAP
1E00
6180
6180
C0C0
C0C0
C0C0
FFC0
C0C0
C0C0
C0C0
6180
6180
1E00
ENDCHAR
STARTCHAR 03B9
ENCODING 953
SWIDTH 300 0
DWIDTH 5 0
BBX 2 9 1 0
BITMAP
C0
C0
C0
C0
C0
C0
C0
C0
C0
ENDCHAR
STARTCHAR 03BA
ENCODING 954
SWIDTH 600 0
DWIDTH 10 0
BBX 8 9 1 0
BITMAP
C7
CC
D8
F0
F0
D8
CC
C6
C3
ENDCHAR
STARTCHAR 03BB
ENCODING 955
SWIDTH 600 0
DWIDTH 10 0
BBX 8 13 1 0
BITMAP
70
30
30
18
18
18
1C
3C
3C
66
66
66
C3
ENDCHAR
STARTCHAR 03BC
ENCODING 956
SWIDTH 660 0
DWIDTH 11 0
BBX 8 12 1 -3
BITMAP
C3
C3
C3
C3
C3
C3
C3
E7
DB
C0
C0
C0
ENDCHAR
STARTCHAR 03BD
ENCODING 957
SWIDTH 600 0
DWIDTH 10 0
BBX 8 9 1 0
BITMAP
C3
66
66
66
24
3C
3C
18
18
ENDCHAR
STARTCHAR 03BE
ENCODING 958
SWIDTH 540 0
DWIDTH 9 0
BBX 8 16 0 -3
BITMAP
FE
30
60
60
60
30
1E
60
C0
C0
C0
60
3E
03
03
06
ENDCHAR
STARTCHAR 03BF
ENCODING 959
SWIDTH 600 0
DWIDTH 10 0
BBX 9 9 0 0
BITMAP
3E00
6300
C180
C180
C180
C180
C180
6300
3E00
ENDCHAR
STARTCHAR 03C0
ENCODING 960
SWIDTH 660 0
DWIDTH 11 0
BBX 8 9 1 0
BITMAP
FF
C3
C3
C3
C3
C3
C3
C3
C3
ENDCHAR
STARTCHAR 03C1
ENCODING 961
SWIDTH 660 0
DWIDTH 11 0
BBX 9 12 1 -3
BITMAP
3E00
6300
C180
C180
C180
C180
C180
C300
FE00
C000
C000
C000
ENDCHAR
STARTCHAR 03C2
ENCODING 962
SWIDTH 540 0
DWIDTH 9 0
BBX 9 12 0 -3
BITMAP
1F80
7080
6000
C000
C000
C000
C000
6000
3F00
0180
0180
0300
ENDCHAR
STARTCHAR 03C3
ENCODING 963
SWIDTH 660 0
DWIDTH 11 0
BBX 11 9 0 0
BITMAP
3FE0
6180
C0C0
C0C0
C0C0
C0C0
C0C0
6180
3F00
ENDCHAR
STARTCHAR 03C4
ENCODING 964
SWIDTH 480 0
DWIDTH 8 0
BBX 8 9 0 0
BITMAP
FF
18
18
18
18
18
18
18
18
ENDCHAR
STARTCHAR 03C5
ENCODING 965
SWIDTH 660 0
DWIDTH 11 0
BBX 8 9 1 0
BITMAP
C3
C3
C3
C3
C3
C3
C3
66
3C
ENDCHAR
STARTCHAR 03C6
ENCODING 966
SWIDTH 780 0
DWIDTH 13 0
BBX 12 12 0 -3
BITMAP
3780
6660
C630
C630
C630
C630
C630
6660
1F80
0600
0600
0600
ENDCHAR
STARTCHAR 03C7
ENCODING 967
SWIDTH 600 0
DWIDTH 10 0
BBX 10 12 0 -3
BITMAP
E1C0
6180
3300
3300
1E00
0C00
0C00
1E00
3300
3300
6180
E1C0
ENDCHAR
STARTCHAR 03C8
ENCODING 968
SWIDTH 840 0
DWIDTH 14 0
BBX 12 12 1 -3
BITMAP
C630
C630
C630
C630
C630
C630
C630
6660
3FC0
0600
0600
0600
ENDCHAR
STARTCHAR 03C9
ENCODING 969
SWIDTH 840 0
DWIDTH 14 0
BBX 12 9 1 0
BITMAP
30C0
6060
C630
C630
C630
C630
C630
6660
39C0
ENDCHAR
STARTCHAR 03CA
ENCODING 970
SWIDTH 300 0
DWIDTH 5 0
BBX 6 13 -1 0
BITMAP
CC
CC
00
00
30
30
30
30
30
30
30
30
30
ENDCHAR
STARTCHAR 03CB
ENCODING 971
SWIDTH 660 0
DWIDTH 11 0
BBX 8 13 1 0
BITMAP
36
36
00
00
C3
C3
C3
C3
C3
C3
C3
66
3C
ENDCHAR
STARTCHAR 03CC
ENCODING 972
SWIDTH 600 0
DWIDTH 10 0
BBX 9 14 0 0
BITMAP
0C00
0C00
0C00
0000
0000
3E00
6300
C180
C180
C180
C180
C180
6300
3E00
ENDCHAR
STARTCHAR 03CD
ENCODING 973
SWIDTH 660 0
DWIDTH 11 0
BBX 8 14 1 0
BITMAP
18
18
18
00
00
C3
C3
C3
C3
C3
C3
C3
66
3C
ENDCHAR
STARTCHAR 03CE
ENCODING 974
SWIDTH 840 0
DWIDTH 14 0
BBX 12 14 1 0
BITMAP
0600
0600
0600
0000
0000
30C0
6060
C630
C630
C630
C630
C630
6660
39C0
ENDCHAR
STARTCHAR 0401
ENCODING 1025
SWIDTH 660 0
DWIDTH 11 0
BBX 8 16 2 0
BITMAP
36
36
00
00
FF
C0
C0
C0
C0
FF
C0
C0
C0
C0
C0
FF
ENDCHAR
STARTCHAR 0402
ENCODING 1026
SWIDTH 780 0
DWIDTH 13 0
BBX 12 12 0 0
BITMAP
FFC0
0C00
0C00
0C00
0C00
0FE0
0C70
0C30
0C30
0C30
0C30
0CE0
ENDCHAR
STARTCHAR 0403
ENCODING 1027
SWIDTH 600 0
DWIDTH 10 0
BBX 8 17 2 0
BITMAP
0E
0C
18
00
00
FF
C0
C0
C0
C0
C0
C0
C0
C0
C0
C0
C0
ENDCHAR
STARTCHAR 0404
ENCODING 1028
SWIDTH 720 0
DWIDTH 12 0
BBX 10 12 1 0
BITMAP
1F80
30C0
6040
C000
C000
FF00
C000
C000
C000
6040
30C0
1F80
ENDCHAR
STARTCHAR 0405
ENCODING 1029
SWIDTH 720 0
DWIDTH 12 0
BBX 10 12 1 0
BITMAP
3F00
6180
C080
C000
E000
7E00
1F80
01C0
00C0
80C0
C180
7F00
ENDCHAR
STARTCHAR 0406
ENCODING 1030
SWIDTH 480 0
DWIDTH 8 0
BBX 6 12 1 0
BITMAP
FC
30
30
30
30
30
30
30
30
30
30
FC
ENDCHAR
STARTCHAR 0407
ENCODING 1031
SWIDTH 480 0
DWIDTH 8 0
BBX 6 16 1 0
BITMAP
6C
6C
00
00
FC
30
30
30
30
30
30
30
30
30
30
FC
ENDCHAR
STARTCHAR 0408
ENCODING 1032
SWIDTH 480 0
DWIDTH 8 0
BBX 6 12 0 0
BITMAP
3C
0C
0C
0C
0C
0C
0C
0C
0C
0C
0C
F0
ENDCHAR
STARTCHAR 0409
ENCODING 1033
SWIDTH 1140 0
DWIDTH 19 0
BBX 18 12 0 0
BITMAP
1FE000
186000
186000
186000
186000
187F00
186180
1860C0
3060C0
3060C0
306180
E07F00
ENDCHAR
STARTCHAR 040A
ENCODING 1034
SWIDTH 1140 0
DWIDTH 19 0
BBX 16 12 2 0
BITMAP
C180
C180
C180
C180
C180
FFFC
C186
C183
C183
C183
C186
C1FC
ENDCHAR
STARTCHAR 040B
ENCODING 1035
SWIDTH 840 0
DWIDTH 14 0
BBX 13 12 0 0
BITMAP
FFC0
0C00
0C00
0C00
0C00
0FF0
0C38
0C18
0C18
0C18
0C18
0C18
ENDCHAR
STARTCHAR 040C
ENCODING 1036
SWIDTH 720 0
DWIDTH 12 0
BBX 10 17 2 0
BITMAP
0E00
0C00
1800
0000
0000
C380
C600
C600
CC00
CC00
F800
D800
CC00
C600
C300
C380
C1C0
ENDCHAR
STARTCHAR 040E
ENCODING 1038
SWIDTH 600 0
DWIDTH 10 0
BBX 10 16 0 0
BITMAP
3300
3300
1E00
0000
C0C0
6180
6180
3300
3300
1F00
1E00
0E00
0C00
0C00
1800
7000
ENDCHAR
STARTCHAR 040F
ENCODING 1039
SWIDTH 780 0
DWIDTH 13 0
BBX 9 15 2 -3
BITMAP
C180
C180
C180
C180
C180
C180
C180
C180
C180
C180
C180
FF80
0C00
0C00
0C00
ENDCHAR
STARTCHAR 0410
ENCODING 1040
SWIDTH 720 0
DWIDTH 12 0
BBX 12 12 0 0
BITMAP
0600
0F00
0F00
1980
1980
1980
30C0
3FC0
6060
6060
6060
C030
ENDCHAR
STARTCHAR 0411
ENCODING 1041
SWIDTH 720 0
DWIDTH 12 0
BBX 9 12 2 0
BITMAP
FF00
C000
C000
C000
C000
FE00
C380
C180
C180
C180
C300
FE00
ENDCHAR
STARTCHAR 0412
ENCODING 1042
SWIDTH 720 0
DWIDTH 12 0
BBX 9 12 2 0
BITMAP
FE00
C300
C300
C300
C600
FE00
C300
C180
C180
C180
C300
FE00
ENDCHAR
STARTCHAR 0413
ENCODING 1043
SWIDTH 600 0
DWIDTH 10 0
BBX 8 12 2 0
BITMAP
FF
C0
C0
C0
C0
C0
C0
C0
C0
C0
C0
C0
ENDCHAR
STARTCHAR 0414
ENCODING 1044
SWIDTH 780 0
DWIDTH 13 0
BBX 12 15 0 -3
BITMAP
1FE0
1860
1860
1860
1860
1860
3060
3060
3060
3060
6060
FFF0
C030
C030
C030
ENDCHAR
STARTCHAR 0415
ENCODING 1045
SWIDTH 660 0
DWIDTH 11 0
BBX 8 12 2 0
BITMAP
FF
C0
C0
C0
C0
FF
C0
C0
C0
C0
C0
FF
ENDCHAR
STARTCHAR 0416
ENCODING 1046
SWIDTH 1020 0
DWIDTH 17 0
BBX 16 12 1 0
BITMAP
E187
318C
1998
1998
1998
0DB0
07E0
0DB0
1D98
399C
718E
E187
ENDCHAR
STARTCHAR 0417
ENCODING 1047
SWIDTH 600 0
DWIDTH 10 0
BBX 8 12 1 0
BITMAP
7C
C7
83
03
06
3C
06
03
03
83
C6
7C
ENDCHAR
STARTCHAR 0418
ENCODING 1048
SWIDTH 780 0
DWIDTH 13 0
BBX 9 12 2 0
BITMAP
C180
C380
C380
C580
C580
C980
C980
D180
D180
E180
E180
C180
ENDCHAR
STARTCHAR 0419
ENCODING 1049
SWIDTH 780 0
DWIDTH 13 0
BBX 9 16 2 0
BITMAP
3300
3300
1E00
0000
C180
C380
C380
C580
C580
C980
C980
D180
D180
E180
E180
C180
ENDCHAR
STARTCHAR 041A
ENCODING 1050
SWIDTH 720 0
DWIDTH 12 0
BBX 10 12 2 0
BITMAP
C380
C600
C600
CC00
CC00
F800
D800
CC00
C600
C300
C380
C1C0
ENDCHAR
STARTCHAR 041B
ENCODING 1051
SWIDTH 780 0
DWIDTH 13 0
BBX 11 12 0 0
BITMAP
1FE0
1860
1860
1860
1860
1860
1860
1860
3060
3060
3060
E060
ENDCHAR
STARTCHAR 041C
ENCODING 1052
SWIDTH 840 0
DWIDTH 14 0
BBX 10 12 2 0
BITMAP
E1C0
E1C0
E1C0
D2C0
D2C0
DAC0
CCC0
CCC0
CCC0
C0C0
C0C0
C0C0
ENDCHAR
STARTCHAR 041D
ENCODING 1053
SWIDTH 780 0
DWIDTH 13 0
BBX 9 12 2 0
BITMAP
C180
C180
C180
C180
C180
FF80
C180
C180
C180
C180
C180
C180
ENDCHAR
STARTCHAR 041E
ENCODING 1054
SWIDTH 780 0
DWIDTH 13 0
BBX 11 12 1 0
BITMAP
1F00
3180
60C0
C060
C060
C060
C060
C060
C060
60C0
3180
1F00
ENDCHAR
STARTCHAR 041F
ENCODING 1055
SWIDTH 780 0
DWIDTH 13 0
BBX 9 12 2 0
BITMAP
FF80
C180
C180
C180
C180
C180
C180
C180
C180
C180
C180
C180
ENDCHAR
STARTCHAR 0420
ENCODING 1056
SWIDTH 600 0
DWIDTH 10 0
BBX 7 12 2 0
BITMAP
F8
CC
C6
C6
C6
C6
CC
F8
C0
C0
C0
C0
ENDCHAR
STARTCHAR 0421
ENCODING 1057
SWIDTH 720 0
DWIDTH 12 0
BBX 10 12 1 0
BITMAP
1F80
30C0
6040
C000
C000
C000
C000
C000
C000
6040
30C0
1F80
ENDCHAR
STARTCHAR 0422
ENCODING 1058
SWIDTH 600 0
DWIDTH 10 0
BBX 10 12 0 0
BITMAP
FFC0
0C00
0C00
0C00
0C00
0C00
0C00
0C00
0C00
0C00
0C00
0C00
ENDCHAR
STARTCHAR 0423
ENCODING 1059
SWIDTH 600 0
DWIDTH 10 0
BBX 10 12 0 0
BITMAP
C0C0
6180
6180
3300
3300
1F00
1E00
0E00
0C00
0C00
1800
7000
ENDCHAR
STARTCHAR 0424
ENCODING 1060
SWIDTH 840 0
DWIDTH 14 0
BBX 12 12 1 0
BITMAP
0600
1F80
6660
6660
C630
C630
C630
C630
6660
6660
1F80
0600
ENDCHAR
STARTCHAR 0425
ENCODING 1061
SWIDTH 720 0
DWIDTH 12 0
BBX 10 12 1 0
BITMAP
E1C0
6180
3300
3300
1E00
0C00
0C00
1E00
3300
3300
6180
E1C0
ENDCHAR
STARTCHAR 0426
ENCODING 1062
SWIDTH 780 0
DWIDTH 13 0
BBX 10 15 2 -3
BITMAP
C180
C180
C180
C180
C180
C180
C180
C180
C180
C180
C180
FFC0
00C0
00C0
00C0
ENDCHAR
STARTCHAR 0427
ENCODING 1063
SWIDTH 720 0
DWIDTH 12 0
BBX 9 12 1 0
BITMAP
C180
C180
C180
C180
C180
C180
6180
3F80
0180
0180
0180
0180
ENDCHAR
STARTCHAR 0428
ENCODING 1064
SWIDTH 1080 0
DWIDTH 18 0
BBX 14 12 2 0
BITMAP
C30C
C30C
C30C
C30C
C30C
C30C
C30C
C30C
C30C
C30C
C30C
FFFC
ENDCHAR
STARTCHAR 0429
ENCODING 1065
SWIDTH 1080 0
DWIDTH 18 0
BBX 16 15 2 -3
BITMAP
C30C
C30C
C30C
C30C
C30C
C30C
C30C
C30C
C30C
C30C
C30C
FFFF
0003
0003
0003
ENDCHAR
STARTCHAR 042A
ENCODING 1066
SWIDTH 780 0
DWIDTH 13 0
BBX 12 12 0 0
BITMAP
F800
1800
1800
1800
1800
1FC0
1860
1830
1830
1830
1860
1FC0
ENDCHAR
STARTCHAR 042B
ENCODING 1067
SWIDTH 960 0
DWIDTH 16 0
BBX 12 12 2 0
BITMAP
C030
C030
C030
C030
C030
FE30
C330
C1B0
C1B0
C1B0
C330
FE30
ENDCHAR
STARTCHAR 042C
ENCODING 1068
SWIDTH 720 0
DWIDTH 12 0
BBX 9 12 2 0
BITMAP
C000
C000
C000
C000
C000
FE00
C300
C180
C180
C180
C300
FE00
ENDCHAR
STARTCHAR 042D
ENCODING 1069
SWIDTH 720 0
DWIDTH 12 0
BBX 10 12 1 0
BITMAP
7E00
C300
8180
00C0
00C0
3FC0
00C0
00C0
00C0
8180
C300
7E00
ENDCHAR
STARTCHAR 042E
ENCODING 1070
SWIDTH 1080 0
DWIDTH 18 0
BBX 15 12 2 0
BITMAP
C1F0
C318
C60C
CC06
CC06
FC06
CC06
CC06
CC06
C60C
C318
C1F0
ENDCHAR
STARTCHAR 042F
ENCODING 1071
SWIDTH 720 0
DWIDTH 12 0
BBX 10 12 0 0
BITMAP
1FC0
30C0
60C0
60C0
60C0
30C0
1FC0
1CC0
18C0
30C0
70C0
E0C0
ENDCHAR
STARTCHAR 0430
ENCODING 1072
SWIDTH 600 0
DWIDTH 10 0
BBX 8 9 0 0
BITMAP
7E
43
03
3F
63
C3
C3
C7
7B
ENDCHAR
STARTCHAR 0431
ENCODING 1073
SWIDTH 600 0
DWIDTH 10 0
BBX 9 13 0 0
BITMAP
0F00
3000
6000
4000
DE00
E300
C180
C180
C180
C180
6180
6300
3E00
ENDCHAR
STARTCHAR 0432
ENCODING 1074
SWIDTH 600 0
DWIDTH 10 0
BBX 8 9 1 0
BITMAP
FC
C6
C6
C6
FC
C3
C3
C3
FE
ENDCHAR
STARTCHAR 0433
ENCODING 1075
SWIDTH 480 0
DWIDTH 8 0
BBX 7 9 1 0
BITMAP
FE
C0
C0
C0
C0
C0
C0
C0
C0
ENDCHAR
STARTCHAR 0434
ENCODING 1076
SWIDTH 660 0
DWIDTH 11 0
BBX 10 11 0 -2
BITMAP
1F00
1B00
1B00
1B00
3300
3300
3300
6300
FFC0
C0C0
C0C0
ENDCHAR
STARTCHAR 0435
ENCODING 1077
SWIDTH 600 0
DWIDTH 10 0
BBX 9 9 0 0
BITMAP
3E00
6300
C180
C180
FF80
C000
C000
6080
1F80
ENDCHAR
STARTCHAR 0436
ENCODING 1078
SWIDTH 840 0
DWIDTH 14 0
BBX 14 9 0 0
BITMAP
E31C
3330
3B70
1B60
0FC0
1F60
3B70
7338
E31C
ENDCHAR
STARTCHAR 0437
ENCODING 1079
SWIDTH 480 0
DWIDTH 8 0
BBX 7 9 0 0
BITMAP
FC
86
06
06
38
06
06
86
FC
ENDCHAR
STARTCHAR 0438
ENCODING 1080
SWIDTH 660 0
DWIDTH 11 0
BBX 8 9 1 0
BITMAP
C3
C7
C7
CB
DB
D3
E3
E3
C3
ENDCHAR
STARTCHAR 0439
ENCODING 1081
SWIDTH 660 0
DWIDTH 11 0
BBX 8 13 1 0
BITMAP
66
66
3C
00
C3
C7
C7
CB
DB
D3
E3
E3
C3
ENDCHAR
STARTCHAR 043A
ENCODING 1082
SWIDTH 600 0
DWIDTH 10 0
BBX 8 9 1 0
BITMAP
C7
CC
DC
D8
F0
D8
CC
C6
C3
ENDCHAR
STARTCHAR 043B
ENCODING 1083
SWIDTH 660 0
DWIDTH 11 0
BBX 9 9 0 0
BITMAP
3F80
3180
3180
3180
3180
3180
3180
6180
C180
ENDCHAR
STARTCHAR 043C
ENCODING 1084
SWIDTH 720 0
DWIDTH 12 0
BBX 9 9 1 0
BITMAP
E380
E380
E380
D580
D580
DD80
C980
C180
C180
ENDCHAR
STARTCHAR 043D
ENCODING 1085
SWIDTH 660 0
DWIDTH 11 0
BBX 8 9 1 0
BITMAP
C3
C3
C3
C3
FF
C3
C3
C3
C3
ENDCHAR
STARTCHAR 043E
ENCODING 1086
SWIDTH 600 0
DWIDTH 10 0
BBX 9 9 0 0
BITMAP
3E00
6300
C180
C180
C180
C180
C180
6300
3E00
ENDCHAR
STARTCHAR 043F
ENCODING 1087
SWIDTH 660 0
DWIDTH 11 0
BBX 8 9 1 0
BITMAP
FF
C3
C3
C3
C3
C3
C3
C3
C3
ENDCHAR
STARTCHAR 0440
ENCODING 1088
SWIDTH 660 0
DWIDTH 11 0
BBX 9 12 1 -3
BITMAP
DE00
E300
C180
C180
C180
C180
C180
C300
FE00
C000
C000
C000
ENDCHAR
STARTCHAR 0441
ENCODING 1089
SWIDTH 540 0
DWIDTH 9 0
BBX 8 9 0 0
BITMAP
3F
61
C0
C0
C0
C0
C0
63
3E
ENDCHAR
STARTCHAR 0442
ENCODING 1090
SWIDTH 480 0
DWIDTH 8 0
BBX 8 9 0 0
BITMAP
FF
18
18
18
18
18
18
18
18
ENDCHAR
STARTCHAR 0443
ENCODING 1091
SWIDTH 600 0
DWIDTH 10 0
BBX 8 12 1 -3
BITMAP
C3
66
66
66
24
3C
18
18
18
10
30
60
ENDCHAR
STARTCHAR 0444
ENCODING 1092
SWIDTH 780 0
DWIDTH 13 0
BBX 12 16 0 -3
BITMAP
0600
0600
0600
0600
3FC0
6660
C630
C630
C630
C630
C630
6660
3FC0
0600
0600
0600
ENDCHAR
STARTCHAR 0445
ENCODING 1093
SWIDTH 600 0
DWIDTH 10 0
BBX 8 9 1 0
BITMAP
E7
66
3C
38
18
3C
3C
66
E7
ENDCHAR
STARTCHAR 0446
ENCODING 1094
SWIDTH 720 0
DWIDTH 12 0
BBX 10 11 1 -2
BITMAP
C300
C300
C300
C300
C300
C300
C300
C300
FFC0
00C0
00C0
ENDCHAR
STARTCHAR 0447
ENCODING 1095
SWIDTH 600 0
DWIDTH 10 0
BBX 7 9 1 0
BITMAP
C6
C6
C6
C6
C6
7E
06
06
06
ENDCHAR
STARTCHAR 0448
ENCODING 1096
SWIDTH 900 0
DWIDTH 15 0
BBX 12 9 1 0
BITMAP
C630
C630
C630
C630
C630
C630
C630
C630
FFF0
ENDCHAR
STARTCHAR 0449
ENCODING 1097
SWIDTH 900 0
DWIDTH 15 0
BBX 14 11 1 -2
BITMAP
C630
C630
C630
C630
C630
C630
C630
C630
FFFC
000C
000C
ENDCHAR
STARTCHAR 044A
ENCODING 1098
SWIDTH 660 0
DWIDTH 11 0
BBX 10 9 0 0
BITMAP
F800
1800
1800
1F80
18C0
18C0
18C0
18C0
1F80
ENDCHAR
STARTCHAR 044B
ENCODING 1099
SWIDTH 840 0
DWIDTH 14 0
BBX 11 9 1 0
BITMAP
C060
C060
C060
FC60
C660
C660
C660
C660
FC60
ENDCHAR
STARTCHAR 044C
ENCODING 1100
SWIDTH 600 0
DWIDTH 10 0
BBX 8 9 1 0
BITMAP
C0
C0
C0
FE
C3
C3
C3
C7
FC
ENDCHAR
STARTCHAR 044D
ENCODING 1101
SWIDTH 540 0
DWIDTH 9 0
BBX 8 9 0 0
BITMAP
FC
86
03
03
3F
03
03
86
FC
ENDCHAR
STARTCHAR 044E
ENCODING 1102
SWIDTH 840 0
DWIDTH 14 0
BBX 12 9 1 0
BITMAP
C3C0
C660
CC30
CC30
FC30
CC30
CC30
C660
C3C0
ENDCHAR
STARTCHAR 044F
ENCODING 1103
SWIDTH 600 0
DWIDTH 10 0
BBX 8 9 0 0
BITMAP
3F
63
63
63
3F
3B
33
63
E3
ENDCHAR
STARTCHAR 0451
ENCODING 1105
SWIDTH 600 0
DWIDTH 10 0
BBX 9 13 0 0
BITMAP
3600
3600
0000
0000
3E00
6300
C180
C180
FF80
C000
C000
6080
1F80
ENDCHAR
STARTCHAR 0452
ENCODING 1106
SWIDTH 660 0
DWIDTH 11 0
BBX 9 16 0 -3
BITMAP
6000
6000
FC00
6000
6F00
7180
6180
6180
6180
6180
6180
6180
6180
0100
0300
0E00
ENDCHAR
STARTCHAR 0453
ENCODING 1107
SWIDTH 480 0
DWIDTH 8 0
BBX 7 14 1 0
BITMAP
1C
18
30
00
00
FE
C0
C0
C0
C0
C0
C0
C0
C0
ENDCHAR
STARTCHAR 0454
ENCODING 1108
SWIDTH 540 0
DWIDTH 9 0
BBX 8 9 0 0
BITMAP
3F
61
C0
C0
FE
C0
C0
61
3F
ENDCHAR
STARTCHAR 0455
ENCODING 1109
SWIDTH 540 0
DWIDTH 9 0
BBX 8 9 0 0
BITMAP
3E
63
C1
E0
7E
07
83
C6
7C
ENDCHAR
STARTCHAR 0456
ENCODING 1110
SWIDTH 300 0
DWIDTH 5 0
BBX 2 12 1 0
BITMAP
C0
C0
00
C0
C0
C0
C0
C0
C0
C0
C0
C0
ENDCHAR
STARTCHAR 0457
ENCODING 1111
SWIDTH 300 0
DWIDTH 5 0
BBX 6 13 -1 0
BITMAP
CC
CC
00
00
30
30
30
30
30
30
30
30
30
ENDCHAR
STARTCHAR 0458
ENCODING 1112
SWIDTH 360 0
DWIDTH 6 0
BBX 5 15 -1 -3
BITMAP
18
18
00
38
18
18
18
18
18
18
18
18
18
18
F0
ENDCHAR
STARTCHAR 0459
ENCODING 1113
SWIDTH 960 0
DWIDTH 16 0
BBX 15 9 0 0
BITMAP
3F80
3180
3180
31FC
3186
3186
3186
6186
C1FC
ENDCHAR
STARTCHAR 045A
ENCODING 1114
SWIDTH 960 0
DWIDTH 16 0
BBX 14 9 1 0
BITMAP
C300
C300
C300
FFF8
C30C
C30C
C30C
C30C
C3F8
ENDCHAR
STARTCHAR 045B
ENCODING 1115
SWIDTH 660 0
DWIDTH 11 0
BBX 9 13 0 0
BITMAP
6000
6000
FC00
6000
6F00
7180
6180
6180
6180
6180
6180
6180
6180
ENDCHAR
STARTCHAR 045C
ENCODING 1116
SWIDTH 600 0
DWIDTH 10 0
BBX 8 14 1 0
BITMAP
0E
0C
18
00
00
C7
CC
DC
D8
F0
D8
CC
C6
C3
ENDCHAR
STARTCHAR 045E
ENCODING 1118
SWIDTH 600 0
DWIDTH 10 0
BBX 8 16 1 -3
BITMAP
66
66
3C
00
C3
66
66
66
24
3C
18
18
18
10
30
60
ENDCHAR
STARTCHAR 045F
ENCODING 1119
SWIDTH 660 0
DWIDTH 11 0
BBX 8 11 1 -2
BITMAP
C3
C3
C3
C3
C3
C3
C3
C3
FF
18
18
ENDCHAR
STARTCHAR 0490
ENCODING 1168
SWIDTH 600 0
DWIDTH 10 0
BBX 8 15 2 0
BITMAP
03
03
03
FF
C0
C0
C0
C0
C0
C0
C0
C0
C0
C0
C0
ENDCHAR
STARTCHAR 0491
ENCODING 1169
SWIDTH 480 0
DWIDTH 8 0
BBX 7 12 1 0
BITMAP
06
06
06
FE
C0
C0
C0
C0
C0
C0
C0
C0
ENDCHAR
STARTCHAR 1E80
ENCODING 7808
SWIDTH 1020 0
DWIDTH 17 0
BBX 15 17 1 0
BITMAP
0700
0300
0180
0000
0000
C106
C386
628C
628C
628C
66CC
2448
3458
3458
1C78
1830
1830
ENDCHAR
STARTCHAR 1E81
ENCODING 7809
SWIDTH 840 0
DWIDTH 14 0
BBX 12 14 1 0
BITMAP
1C00
0C00
0600
0000
0000
C630
C630
4620
6F60
6960
6960
39C0
30C0
30C0
ENDCHAR
STARTCHAR 1E82
ENCODING 7810
SWIDTH 1020 0
DWIDTH 17 0
BBX 15 17 1 0
BITMAP
00E0
00C0
0180
0000
0000
C106
C386
628C
628C
628C
66CC
2448
3458
3458
1C78
1830
1830
ENDCHAR
STARTCHAR 1E83
ENCODING 7811
SWIDTH 840 0
DWIDTH 14 0
BBX 12 14 1 0
BITMAP
0380
0300
0600
0000
0000
C630
C630
4620
6F60
6960
6960
39C0
30C0
30C0
ENDCHAR
STARTCHAR 1E84
ENCODING 7812
SWIDTH 1020 0
DWIDTH 17 0
BBX 15 16 1 0
BITMAP
06C0
06C0
0000
0000
C106
C386
628C
628C
628C
66CC
2448
3458
3458
1C78
1830
1830
ENDCHAR
STARTCHAR 1E85
ENCODING 7813
SWIDTH 840 0
DWIDTH 14 0
BBX 12 13 1 0
BITMAP
0D80
0D80
0000
0000
C630
C630
4620
6F60
6960
6960
39C0
30C0
30C0
ENDCHAR
STARTCHAR 1EA0
ENCODING 7840
SWIDTH 720 0
DWIDTH 12 0
BBX 12 15 0 -3
BITMAP
0600
0F00
0F00
1980
1980
1980
30C0
3FC0
6060
6060
6060
C030
0000
0600
0600
ENDCHAR
STARTCHAR 1EA1
ENCODING 7841
SWIDTH 600 0
DWIDTH 10 0
BBX 8 12 0 -3
BITMAP
7E
43
03
3F
63
C3
C3
C7
7B
00
18
18
ENDCHAR
STARTCHAR 1EA2
ENCODING 7842
SWIDTH 720 0
DWIDTH 12 0
BBX 12 17 0 0
BITMAP
0700
0100
0200
0000
0000
0600
0F00
0F00
1980
1980
1980
30C0
3FC0
6060
6060
6060
C030
ENDCHAR
STARTCHAR 1EA3
ENCODING 7843
SWIDTH 600 0
DWIDTH 10 0
BBX 8 14 0 0
BITMAP
1C
04
08
00
00
7E
43
03
3F
63
C3
C3
C7
7B
ENDCHAR
STARTCHAR 1EA4
ENCODING 7844
SWIDTH 720 0
DWIDTH 12 0
BBX 12 17 0 0
BITMAP
0630
0F60
1980
0000
0000
0600
0F00
0F00
1980
1980
1980
30C0
3FC0
6060
6060
6060
C030
ENDCHAR
STARTCHAR 1EA5
ENCODING 7845
SWIDTH 600 0
DWIDTH 10 0
BBX 11 14 0 0
BITMAP
0C60
1EC0
3300
0000
0000
7E00
4300
0300
3F00
6300
C300
C300
C700
7B00
ENDCHAR
STARTCHAR 1EA6
ENCODING 7846
SWIDTH 720 0
DWIDTH 12 0
BBX 12 17 0 0
BITMAP
C600
6F00
1980
0000
0000
0600
0F00
0F00
1980
1980
1980
30C0
3FC0
6060
6060
6060
C030
ENDCHAR
STARTCHAR 1EA7
ENCODING 7847
SWIDTH 600 0
DWIDTH 10 0
BBX 9 14 -1 0
BITMAP
C600
6F00
1980
0000
0000
3F00
2180
0180
1F80
3180
6180
6180
6380
3D80
ENDCHAR
STARTCHAR 1EA8
ENCODING 7848
SWIDTH 720 0
DWIDTH 12 0
BBX 12 17 0 0
BITMAP
0670
0F10
19A0
0000
0000
0600
0F00
0F00
1980
1980
1980
30C0
3FC0
6060
6060
6060
C030
ENDCHAR
STARTCHAR 1EA9
ENCODING 7849
SWIDTH 600 0
DWIDTH 10 0
BBX 10 16 0 0
BITMAP
01C0
0040
0C80
1E00
3300
0000
0000
7E00
4300
0300
3F00
6300
C300
C300
C700
7B00
ENDCHAR
STARTCHAR 1EAA
ENCODING 7850
SWIDTH 720 0
DWIDTH 12 0
BBX 12 17 0 0
BITMAP
0C80
1300
0600
0900
0000
0600
0F00
0F00
1980
1980
1980
30C0
3FC0
6060
6060
6060
C030
ENDCHAR
STARTCHAR 1EAB
ENCODING 7851
SWIDTH 600 0
DWIDTH 10 0
BBX 8 17 0 0
BITMAP
1B
36
00
0C
1E
33
00
00
7E
43
03
3F
63
C3
C3
C7
7B
ENDCHAR
STARTCHAR 1EAC
ENCODING 7852
SWIDTH 720 0
DWIDTH 12 0
BBX 12 20 0 -3
BITMAP
0600
0F00
1980
0000
0000
0600
0F00
0F00
1980
1980
1980
30C0
3FC0
6060
6060
6060
C030
0000
0600
0600
ENDCHAR
STARTCHAR 1EAD
ENCODING 7853
SWIDTH 600 0
DWIDTH 10 0
BBX 8 17 0 -3
BITMAP
0C
1E
33
00
00
7E
43
03
3F
63
C3
C3
C7
7B
00
18
18
ENDCHAR
STARTCHAR 1EAE
ENCODING 7854
SWIDTH 720 0
DWIDTH 12 0
BBX 12 17 0 0
BITMAP
0300
0600
1980
0F00
0000
0600
0F00
0F00
1980
1980
1980
30C0
3FC0
6060
6060
6060
C030
ENDCHAR
STARTCHAR 1EAF
ENCODING 7855
SWIDTH 600 0
DWIDTH 10 0
BBX 8 15 0 0
BITMAP
06
0C
33
33
1E
00
7E
43
03
3F
63
C3
C3
C7
7B
ENDCHAR
STARTCHAR 1EB0
ENCODING 7856
SWIDTH 720 0
DWIDTH 12 0
BBX 12 17 0 0
BITMAP
0C00
0600
1980
0F00
0000
0600
0F00
0F00
1980
1980
1980
30C0
3FC0
6060
6060
6060
C030
ENDCHAR
STARTCHAR 1EB1
ENCODING 7857
SWIDTH 600 0
DWIDTH 10 0
BBX 8 15 0 0
BITMAP
18
0C
33
33
1E
00
7E
43
03
3F
63
C3
C3
C7
7B
ENDCHAR
STARTCHAR 1EB2
ENCODING 7858
SWIDTH 720 0
DWIDTH 12 0
BBX 12 17 0 0
BITMAP
0600
0200
1980
0F00
0000
0600
0F00
0F00
1980
1980
1980
30C0
3FC0
6060
6060
6060
C030
ENDCHAR
STARTCHAR 1EB3
ENCODING 7859
SWIDTH 600 0
DWIDTH 10 0
BBX 8 16 0 0
BITMAP
0C
04
08
33
33
1E
00
7E
43
03
3F
63
C3
C3
C7
7B
ENDCHAR
STARTCHAR 1EB4
ENCODING 7860
SWIDTH 720 0
DWIDTH 12 0
BBX 12 17 0 0
BITMAP
0C80
1300
1980
0F00
0000
0600
0F00
0F00
1980
1980
1980
30C0
3FC0
6060
6060
6060
C030
ENDCHAR
STARTCHAR 1EB5
ENCODING 7861
SWIDTH 600 0
DWIDTH 10 0
BBX 8 16 0 0
BITMAP
1B
36
00
33
33
1E
00
7E
43
03
3F
63
C3
C3
C7
7B
ENDCHAR
STARTCHAR 1EB6
ENCODING 7862
SWIDTH 720 0
DWIDTH 12 0
BBX 12 20 0 -3
BITMAP
1980
1980
0F00
0000
0000
0600
0F00
0F00
1980
1980
1980
30C0
3FC0
6060
6060
6060
C030
0000
0600
0600
ENDCHAR
STARTCHAR 1EB7
ENCODING 7863
SWIDTH 600 0
DWIDTH 10 0
BBX 8 17 0 -3
BITMAP
33
33
1E
00
00
7E
43
03
3F
63
C3
C3
C7
7B
00
18
18
ENDCHAR
STARTCHAR 1EB8
ENCODING 7864
SWIDTH 660 0
DWIDTH 11 0
BBX 8 15 2 -3
BITMAP
FF
C0
C0
C0
C0
FF
C0
C0
C0
C0
C0
FF
00
18
18
ENDCHAR
STARTCHAR 1EB9
ENCODING 7865
SWIDTH 600 0
DWIDTH 10 0
BBX 9 12 0 -3
BITMAP
3E00
6300
C180
C180
FF80
C000
C000
6080
1F80
0000
0C00
0C00
ENDCHAR
STARTCHAR 1EBA
ENCODING 7866
SWIDTH 660 0
DWIDTH 11 0
BBX 8 17 2 0
BITMAP
1C
04
08
00
00
FF
C0
C0
C0
C0
FF
C0
C0
C0
C0
C0
FF
ENDCHAR
STARTCHAR 1EBB
ENCODING 7867
SWIDTH 600 0
DWIDTH 10 0
BBX 9 14 0 0
BITMAP
1C00
0400
0800
0000
0000
3E00
6300
C180
C180
FF80
C000
C000
6080
1F80
ENDCHAR
STARTCHAR 1EBC
ENCODING 7868
SWIDTH 660 0
DWIDTH 11 0
BBX 8 16 2 0
BITMAP
39
4E
00
00
FF
C0
C0
C0
C0
FF
C0
C0
C0
C0
C0
FF
ENDCHAR
STARTCHAR 1EBD
ENCODING 7869
SWIDTH 600 0
DWIDTH 10 0
BBX 9 13 0 0
BITMAP
3900
4E00
0000
0000
3E00
6300
C180
C180
FF80
C000
C000
6080
1F80
ENDCHAR
STARTCHAR 1EBE
ENCODING 7870
SWIDTH 660 0
DWIDTH 11 0
BBX 10 17 2 0
BITMAP
18C0
3D80
6600
0000
0000
FF00
C000
C000
C000
C000
FF00
C000
C000
C000
C000
C000
FF00
ENDCHAR
STARTCHAR 1EBF
ENCODING 7871
SWIDTH 600 0
DWIDTH 10 0
BBX 11 14 0 0
BITMAP
0C60
1EC0
3300
0000
0000
3E00
6300
C180
C180
FF80
C000
C000
6080
1F80
ENDCHAR
STARTCHAR 1EC0
ENCODING 7872
SWIDTH 660 0
DWIDTH 11 0
BBX 10 17 0 0
BITMAP
C600
6F00
1980
0000
0000
3FC0
3000
3000
3000
3000
3FC0
3000
3000
3000
3000
3000
3FC0
ENDCHAR
STARTCHAR 1EC1
ENCODING 7873
SWIDTH 600 0
DWIDTH 10 0
BBX 10 14 -1 0
BITMAP
C600
6F00
1980
0000
0000
1F00
3180
60C0
60C0
7FC0
6000
6000
3040
0FC0
ENDCHAR
STARTCHAR 1EC2
ENCODING 7874
SWIDTH 660 0
DWIDTH 11 0
BBX 10 17 2 0
BITMAP
19C0
3C40
6680
0000
0000
FF00
C000
C000
C000
C000
FF00
C000
C000
C000
C000
C000
FF00
ENDCHAR
STARTCHAR 1EC3
ENCODING 7875
SWIDTH 600 0
DWIDTH 10 0
BBX 10 16 0 0
BITMAP
01C0
0040
0C80
1E00
3300
0000
0000
3E00
6300
C180
C180
FF80
C000
C000
6080
1F80
ENDCHAR
STARTCHAR 1EC4
ENCODING 7876
SWIDTH 660 0
DWIDTH 11 0
BBX 8 17 2 0
BITMAP
32
4C
18
24
00
FF
C0
C0
C0
C0
FF
C0
C0
C0
C0
C0
FF
ENDCHAR
STARTCHAR 1EC5
ENCODING 7877
SWIDTH 600 0
DWIDTH 10 0
BBX 9 17 0 0
BITMAP
1B00
3600
0000
0C00
1E00
3300
0000
0000
3E00
6300
C180
C180
FF80
C000
C000
6080
1F80
ENDCHAR
STARTCHAR 1EC6
ENCODING 7878
SWIDTH 660 0
DWIDTH 11 0
BBX 8 20 2 -3
BITMAP
18
3C
66
00
00
FF
C0
C0
C0
C0
FF
C0
C0
C0
C0
C0
FF
00
18
18
ENDCHAR
STARTCHAR 1EC7
ENCODING 7879
SWIDTH 600 0
DWIDTH 10 0
BBX 9 17 0 -3
BITMAP
0C00
1E00
3300
0000
0000
3E00
6300
C180
C180
FF80
C000
C000
6080
1F80
0000
0C00
0C00
ENDCHAR
STARTCHAR 1EC8
ENCODING 7880
SWIDTH 480 0
DWIDTH 8 0
BBX 6 17 1 0
BITMAP
38
08
10
00
00
FC
30
30
30
30
30
30
30
30
30
30
FC
ENDCHAR
STARTCHAR 1EC9
ENCODING 7881
SWIDTH 300 0
DWIDTH 5 0
BBX 3 14 1 0
BITMAP
E0
20
40
00
00
C0
C0
C0
C0
C0
C0
C0
C0
C0
ENDCHAR
STARTCHAR 1ECA
ENCODING 7882
SWIDTH 480 0
DWIDTH 8 0
BBX 6 15 1 -3
BITMAP
FC
30
30
30
30
30
30
30
30
30
30
FC
00
30
30
ENDCHAR
STARTCHAR 1ECB
ENCODING 7883
SWIDTH 300 0
DWIDTH 5 0
BBX 2 15 1 -3
BITMAP
C0
C0
00
C0
C0
C0
C0
C0
C0
C0
C0
C0
00
C0
C0
ENDCHAR
STARTCHAR 1ECC
ENCODING 7884
SWIDTH 780 0
DWIDTH 13 0
BBX 11 15 1 -3
BITMAP
1F00
3180
60C0
C060
C060
C060
C060
C060
C060
60C0
3180
1F00
0000
0600
0600
ENDCHAR
STARTCHAR 1ECD
ENCODING 7885
SWIDTH 600 0
DWIDTH 10 0
BBX 9 12 0 -3
BITMAP
3E00
6300
C180
C180
C180
C180
C180
6300
3E00
0000
0C00
0C00
ENDCHAR
STARTCHAR 1ECE
ENCODING 7886
SWIDTH 780 0
DWIDTH 13 0
BBX 11 17 1 0
BITMAP
0E00
0200
0400
0000
0000
1F00
3180
60C0
C060
C060
C060
C060
C060
C060
60C0
3180
1F00
ENDCHAR
STARTCHAR 1ECF
ENCODING 7887
SWIDTH 600 0
DWIDTH 10 0
BBX 9 14 0 0
BITMAP
1C00
0400
0800
0000
0000
3E00
6300
C180
C180
C180
C180
C180
6300
3E00
ENDCHAR
STARTCHAR 1ED0
ENCODING 7888
SWIDTH 780 0
DWIDTH 13 0
BBX 11 17 1 0
BITMAP
0C60
1EC0
3300
0000
0000
1F00
3180
60C0
C060
C060
C060
C060
C060
C060
60C0
3180
1F00
ENDCHAR
STARTCHAR 1ED1
ENCODING 7889
SWIDTH 600 0
DWIDTH 10 0
BBX 10 14 0 0
BITMAP
18C0
3D80
6600
0000
0000
3E00
6300
C180
C180
C180
C180
C180
6300
3E00
ENDCHAR
STARTCHAR 1ED2
ENCODING 7890
SWIDTH 780 0
DWIDTH 13 0
BBX 11 17 1 0
BITMAP
C600
6F00
1980
0000
0000
1F00
3180
60C0
C060
C060
C060
C060
C060
C060
60C0
3180
1F00
ENDCHAR
STARTCHAR 1ED3
ENCODING 7891
SWIDTH 600 0
DWIDTH 10 0
BBX 10 14 -1 0
BITMAP
C600
6F00
1980
0000
0000
1F00
3180
60C0
60C0
60C0
60C0
60C0
3180
1F00
ENDCHAR
STARTCHAR 1ED4
ENCODING 7892
SWIDTH 780 0
DWIDTH 13 0
BBX 11 17 1 0
BITMAP
0CE0
1E20
3340
0000
0000
1F00
3180
60C0
C060
C060
C060
C060
C060
C060
60C0
3180
1F00
ENDCHAR
STARTCHAR 1ED5
ENCODING 7893
SWIDTH 600 0
DWIDTH 10 0
BBX 9 16 0 0
BITMAP
0380
0080
1900
3C00
6600
0000
0000
3E00
6300
C180
C180
C180
C180
C180
6300
3E00
ENDCHAR
STARTCHAR 1ED6
ENCODING 7894
SWIDTH 780 0
DWIDTH 13 0
BBX 11 17 1 0
BITMAP
1900
2600
0C00
1200
0000
1F00
3180
60C0
C060
C060
C060
C060
C060
C060
60C0
3180
1F00
ENDCHAR
STARTCHAR 1ED7
ENCODING 7895
SWIDTH 600 0
DWIDTH 10 0
BBX 9 17 0 0
BITMAP
3600
6C00
0000
1800
3C00
6600
0000
0000
3E00
6300
C180
C180
C180
C180
C180
6300
3E00
ENDCHAR
STARTCHAR 1ED8
ENCODING 7896
SWIDTH 780 0
DWIDTH 13 0
BBX 11 20 1 -3
BITMAP
0600
0F00
1980
0000
0000
1F00
3180
60C0
C060
C060
C060
C060
C060
C060
60C0
3180
1F00
0000
0600
0600
ENDCHAR
STARTCHAR 1ED9
ENCODING 7897
SWIDTH 600 0
DWIDTH 10 0
BBX 9 17 0 -3
BITMAP
0C00
1E00
3300
0000
0000
3E00
6300
C180
C180
C180
C180
C180
6300
3E00
0000
0C00
0C00
ENDCHAR
STARTCHAR 1EDA
ENCODING 7898
SWIDTH 780 0
DWIDTH 13 0
BBX 12 17 1 0
BITMAP
0700
0600
0C00
0000
0000
1F30
31B0
60F0
C060
C060
C060
C060
C060
C060
60C0
3180
1F00
ENDCHAR
STARTCHAR 1EDB
ENCODING 7899
SWIDTH 600 0
DWIDTH 10 0
BBX 10 14 0 0
BITMAP
0E00
0C00
18C0
00C0
00C0
3F80
6300
C180
C180
C180
C180
C180
6300
3E00
ENDCHAR
STARTCHAR 1EDC
ENCODING 7900
SWIDTH 780 0
DWIDTH 13 0
BBX 12 17 1 0
BITMAP
1C00
0C00
0600
0000
0000
1F30
31B0
60F0
C060
C060
C060
C060
C060
C060
60C0
3180
1F00
ENDCHAR
STARTCHAR 1EDD
ENCODING 7901
SWIDTH 600 0
DWIDTH 10 0
BBX 10 14 0 0
BITMAP
3800
1800
0CC0
00C0
00C0
3F80
6300
C180
C180
C180
C180
C180
6300
3E00
ENDCHAR
STARTCHAR 1EDE
ENCODING 7902
SWIDTH 780 0
DWIDTH 13 0
BBX 12 17 1 0
BITMAP
0E00
0200
0400
0000
0000
1F30
31B0
60F0
C060
C060
C060
C060
C060
C060
60C0
3180
1F00
ENDCHAR
STARTCHAR 1EDF
ENCODING 7903
SWIDTH 600 0
DWIDTH 10 0
BBX 10 14 0 0
BITMAP
1C00
0400
08C0
00C0
00C0
3F80
6300
C180
C180
C180
C180
C180
6300
3E00
ENDCHAR
STARTCHAR 1EE0
ENCODING 7904
SWIDTH 780 0
DWIDTH 13 0
BBX 12 16 1 0
BITMAP
1C80
2700
0000
0000
1F30
31B0
60F0
C060
C060
C060
C060
C060
C060
60C0
3180
1F00
ENDCHAR
STARTCHAR 1EE1
ENCODING 7905
SWIDTH 600 0
DWIDTH 10 0
BBX 10 13 0 0
BITMAP
3900
4EC0
00C0
00C0
3F80
6300
C180
C180
C180
C180
C180
6300
3E00
ENDCHAR
STARTCHAR 1EE2
ENCODING 7906
SWIDTH 780 0
DWIDTH 13 0
BBX 12 15 1 -3
BITMAP
1F30
31B0
60F0
C060
C060
C060
C060
C060
C060
60C0
3180
1F00
0000
0600
0600
ENDCHAR
STARTCHAR 1EE3
ENCODING 7907
SWIDTH 600 0
DWIDTH 10 0
BBX 10 15 0 -3
BITMAP
00C0
00C0
00C0
3F80
6300
C180
C180
C180
C180
C180
6300
3E00
0000
0C00
0C00
ENDCHAR
STARTCHAR 1EE4
ENCODING 7908
SWIDTH 720 0
DWIDTH 12 0
BBX 10 15 1 -3
BITMAP
C0C0
C0C0
C0C0
C0C0
C0C0
C0C0
C0C0
C0C0
C0C0
C0C0
6180
3F00
0000
0C00
0C00
ENDCHAR
STARTCHAR 1EE5
ENCODING 7909
SWIDTH 660 0
DWIDTH 11 0
BBX 8 12 1 -3
BITMAP
C3
C3
C3
C3
C3
C3
C3
C7
7B
00
18
18
ENDCHAR
STARTCHAR 1EE6
ENCODING 7910
SWIDTH 720 0
DWIDTH 12 0
BBX 10 17 1 0
BITMAP
0E00
0200
0400
0000
0000
C0C0
C0C0
C0C0
C0C0
C0C0
C0C0
C0C0
C0C0
C0C0
C0C0
6180
3F00
ENDCHAR
STARTCHAR 1EE7
ENCODING 7911
SWIDTH 660 0
DWIDTH 11 0
BBX 8 14 1 0
BITMAP
1C
04
08
00
00
C3
C3
C3
C3
C3
C3
C3
C7
7B
ENDCHAR
STARTCHAR 1EE8
ENCODING 7912
SWIDTH 780 0
DWIDTH 13 0
BBX 13 17 1 0
BITMAP
0380
0300
0618
0018
0018
C0F0
C0C0
C0C0
C0C0
C0C0
C0C0
C0C0
C0C0
C0C0
C0C0
6180
3F00
ENDCHAR
STARTCHAR 1EE9
ENCODING 7913
SWIDTH 660 0
DWIDTH 11 0
BBX 11 14 1 0
BITMAP
0E00
0C00
1860
0060
0060
C3C0
C300
C300
C300
C300
C300
C300
C700
7B00
ENDCHAR
STARTCHAR 1EEA
ENCODING 7914
SWIDTH 780 0
DWIDTH 13 0
BBX 13 17 1 0
BITMAP
3800
1800
0C18
0018
0018
C0F0
C0C0
C0C0
C0C0
C0C0
C0C0
C0C0
C0C0
C0C0
C0C0
6180
3F00
ENDCHAR
STARTCHAR 1EEB
ENCODING 7915
SWIDTH 660 0
DWIDTH 11 0
BBX 11 14 1 0
BITMAP
3800
1800
0C60
0060
0060
C3C0
C300
C300
C300
C300
C300
C300
C700
7B00
ENDCHAR
STARTCHAR 1EEC
ENCODING 7916
SWIDTH 780 0
DWIDTH 13 0
BBX 13 17 1 0
BITMAP
0E00
0200
0418
0018
0018
C0F0
C0C0
C0C0
C0C0
C0C0
C0C0
C0C0
C0C0
C0C0
C0C0
6180
3F00
ENDCHAR
STARTCHAR 1EED
ENCODING 7917
SWIDTH 660 0
DWIDTH 11 0
BBX 11 14 1 0
BITMAP
1C00
0400
0860
0060
0060
C3C0
C300
C300
C300
C300
C300
C300
C700
7B00
ENDCHAR
STARTCHAR 1EEE
ENCODING 7918
SWIDTH 780 0
DWIDTH 13 0
BBX 13 16 1 0
BITMAP
1C80
2718
0018
0018
C0F0
C0C0
C0C0
C0C0
C0C0
C0C0
C0C0
C0C0
C0C0
C0C0
6180
3F00
ENDCHAR
STARTCHAR 1EEF
ENCODING 7919
SWIDTH 660 0
DWIDTH 11 0
BBX 11 13 1 0
BITMAP
3900
4E60
0060
0060
C3C0
C300
C300
C300
C300
C300
C300
C700
7B00
ENDCHAR
STARTCHAR 1EF0
ENCODING 7920
SWIDTH 780 0
DWIDTH 13 0
BBX 13 18 1 -3
BITMAP
0018
0018
0018
C0F0
C0C0
C0C0
C0C0
C0C0
C0C0
C0C0
C0C0
C0C0
C0C0
6180
3F00
0000
0C00
0C00
ENDCHAR
STARTCHAR 1EF1
ENCODING 7921
SWIDTH 660 0
DWIDTH 11 0
BBX 11 15 1 -3
BITMAP
0060
0060
0060
C3C0
C300
C300
C300
C300
C300
C300
C700
7B00
0000
1800
1800
ENDCHAR
STARTCHAR 1EF2
ENCODING 7922
SWIDTH 600 0
DWIDTH 10 0
BBX 10 17 0 0
BITMAP
1C00
0C00
0600
0000
0000
E1C0
6180
7380
3300
1E00
1E00
0C00
0C00
0C00
0C00
0C00
0C00
ENDCHAR
STARTCHAR 1EF3
ENCODING 7923
SWIDTH 600 0
DWIDTH 10 0
BBX 8 17 1 -3
BITMAP
38
18
0C
00
00
C3
66
66
66
24
3C
18
18
18
10
30
60
ENDCHAR
STARTCHAR 1EF4
ENCODING 7924
SWIDTH 600 0
DWIDTH 10 0
BBX 10 15 0 -3
BITMAP
E1C0
6180
7380
3300
1E00
1E00
0C00
0C00
0C00
0C00
0C00
0C00
0000
0C00
0C00
ENDCHAR
STARTCHAR 1EF5
ENCODING 7925
SWIDTH 600 0
DWIDTH 10 0
BBX 8 12 1 -3
BITMAP
C3
66
66
66
24
3C
18
18
18
10
33
63
ENDCHAR
STARTCHAR 1EF6
ENCODING 7926
SWIDTH 600 0
DWIDTH 10 0
BBX 10 17 0 0
BITMAP
0E00
0200
0400
0000
0000
E1C0
6180
7380
3300
1E00
1E00
0C00
0C00
0C00
0C00
0C00
0C00
ENDCHAR
STARTCHAR 1EF7
ENCODING 7927
SWIDTH 600 0
DWIDTH 10 0
BBX 8 17 1 -3
BITMAP
1C
04
08
00
00
C3
66
66
66
24
3C
18
18
18
10
30
60
ENDCHAR
STARTCHAR 1EF8
ENCODING 7928
SWIDTH 600 0
DWIDTH 10 0
BBX 10 16 0 0
BITMAP
1C80
2700
0000
0000
E1C0
6180
7380
3300
1E00
1E00
0C00
0C00
0C00
0C00
0C00
0C00
ENDCHAR
STARTCHAR 1EF9
ENCODING 7929
SWIDTH 600 0
DWIDTH 10 0
BBX 8 16 1 -3
BITMAP
39
4E
00
00
C3
66
66
66
24
3C
18
18
18
10
30
60
ENDCHAR
STARTCHAR 2013
ENCODING 8211
SWIDTH 660 0
DWIDTH 11 0
BBX 9 1 1 5
BITMAP
FF80
ENDCHAR
STARTCHAR 2014
ENCODING 8212
SWIDTH 1020 0
DWIDTH 17 0
BBX 15 1 1 5
BITMAP
FFFE
ENDCHAR
STARTCHAR 2015
ENCODING 8213
SWIDTH 1020 0
DWIDTH 17 0
BBX 13 1 2 5
BITMAP
FFF8
ENDCHAR
STARTCHAR 2017
ENCODING 8215
SWIDTH 660 0
DWIDTH 11 0
BBX 11 3 0 -3
BITMAP
FFE0
0000
FFE0
ENDCHAR
STARTCHAR 2018
ENCODING 8216
SWIDTH 300 0
DWIDTH 5 0
BBX 3 5 0 8
BITMAP
C0
40
40
60
20
ENDCHAR
STARTCHAR 2019
ENCODING 8217
SWIDTH 300 0
DWIDTH 5 0
BBX 3 5 1 8
BITMAP
60
40
40
C0
80
ENDCHAR
STARTCHAR 201A
ENCODING 8218
SWIDTH 300 0
DWIDTH 5 0
BBX 3 5 0 -3
BITMAP
60
40
40
C0
80
ENDCHAR
STARTCHAR 201B
ENCODING 8219
SWIDTH 300 0
DWIDTH 5 0
BBX 3 5 0 8
BITMAP
20
60
40
40
C0
ENDCHAR
STARTCHAR 201C
ENCODING 8220
SWIDTH 480 0
DWIDTH 8 0
BBX 6 5 0 8
BITMAP
D8
48
48
6C
24
ENDCHAR
STARTCHAR 201D
ENCODING 8221
SWIDTH 480 0
DWIDTH 8 0
BBX 6 5 1 8
BITMAP
6C
48
48
D8
90
ENDCHAR
STARTCHAR 201E
ENCODING 8222
SWIDTH 480 0
DWIDTH 8 0
BBX 6 5 0 -3
BITMAP
6C
48
48
D8
90
ENDCHAR
STARTCHAR 2020
ENCODING 8224
SWIDTH 660 0
DWIDTH 11 0
BBX 7 12 2 1
BITMAP
10
10
10
FE
10
10
10
10
10
10
10
10
ENDCHAR
STARTCHAR 2021
ENCODING 8225
SWIDTH 660 0
DWIDTH 11 0
BBX 7 12 2 1
BITMAP
10
10
10
FE
10
10
10
10
FE
10
10
10
ENDCHAR
STARTCHAR 2022
ENCODING 8226
SWIDTH 540 0
DWIDTH 9 0
BBX 6 6 1 3
BITMAP
78
FC
FC
FC
FC
78
ENDCHAR
STARTCHAR 2026
ENCODING 8230
SWIDTH 840 0
DWIDTH 14 0
BBX 12 2 1 0
BITMAP
C630
C630
ENDCHAR
STARTCHAR 2030
ENCODING 8240
SWIDTH 1560 0
DWIDTH 26 0
BBX 24 12 1 0
BITMAP
783000
CC2000
CC6000
CC4000
CCC000
CC9E1E
793333
033333
023333
063333
043333
0C1E1E
ENDCHAR
STARTCHAR 2032
ENCODING 8242
SWIDTH 360 0
DWIDTH 6 0
BBX 3 5 2 7
BITMAP
60
40
40
C0
80
ENDCHAR
STARTCHAR 2033
ENCODING 8243
SWIDTH 540 0
DWIDTH 9 0
BBX 6 5 2 7
BITMAP
6C
48
48
D8
90
ENDCHAR
STARTCHAR 2039
ENCODING 8249
SWIDTH 480 0
DWIDTH 8 0
BBX 5 8 2 1
BITMAP
08
18
30
C0
C0
30
18
08
ENDCHAR
STARTCHAR 203A
ENCODING 8250
SWIDTH 480 0
DWIDTH 8 0
BBX 5 8 2 1
BITMAP
80
C0
60
18
18
60
C0
80
ENDCHAR
STARTCHAR 203C
ENCODING 8252
SWIDTH 660 0
DWIDTH 11 0
BBX 6 12 3 0
BITMAP
CC
CC
CC
CC
CC
CC
CC
CC
CC
00
CC
CC
ENDCHAR
STARTCHAR 203E
ENCODING 8254
SWIDTH 660 0
DWIDTH 11 0
BBX 11 1 0 14
BITMAP
FFE0
ENDCHAR
STARTCHAR 2044
ENCODING 8260
SWIDTH 360 0
DWIDTH 6 0
BBX 8 12 -1 0
BITMAP
03
02
06
04
0C
08
10
30
20
60
40
C0
ENDCHAR
STARTCHAR 207F
ENCODING 8319
SWIDTH 540 0
DWIDTH 9 0
BBX 7 8 1 4
BITMAP
DC
E6
C6
C6
C6
C6
C6
C6
ENDCHAR
STARTCHAR 20A3
ENCODING 8355
SWIDTH 660 0
DWIDTH 11 0
BBX 10 12 0 0
BITMAP
3FC0
3000
3000
3000
3000
3FC0
3000
3000
FE00
3000
3000
3000
ENDCHAR
STARTCHAR 20A4
ENCODING 8356
SWIDTH 660 0
DWIDTH 11 0
BBX 9 12 1 0
BITMAP
0F80
1880
3000
3000
3000
7E00
3000
7E00
3000
2000
4000
FF80
ENDCHAR
STARTCHAR 20A7
ENCODING 8359
SWIDTH 1200 0
DWIDTH 20 0
BBX 17 12 2 0
BITMAP
F80000
CCC000
C6C000
C7FF80
C6D880
C6D800
CCD800
F8CF00
C0C180
C0C180
C0D180
C0CF00
ENDCHAR
STARTCHAR 20AB
ENCODING 8363
SWIDTH 660 0
DWIDTH 11 0
BBX 10 16 0 -3
BITMAP
0180
0FC0
0180
0180
3F80
6180
C180
C180
C180
C180
C180
6380
3D80
0000
0000
7F80
ENDCHAR
STARTCHAR 20AC
ENCODING 8364
SWIDTH 660 0
DWIDTH 11 0
BBX 10 12 0 0
BITMAP
0FC0
1840
3000
6000
FE00
6000
6000
FC00
6000
3000
1840
0FC0
ENDCHAR
STARTCHAR 2105
ENCODING 8453
SWIDTH 1080 0
DWIDTH 18 0
BBX 16 12 1 0
BITMAP
3C70
6460
C060
C0C0
C0C0
E59E
3DB3
0333
0333
0633
0633
0E1E
ENDCHAR
STARTCHAR 2113
ENCODING 8467
SWIDTH 360 0
DWIDTH 6 0
BBX 6 12 0 0
BITMAP
38
6C
6C
68
78
70
60
E0
E0
60
64
38
ENDCHAR
STARTCHAR 2116
ENCODING 8470
SWIDTH 1200 0
DWIDTH 20 0
BBX 17 12 2 0
BITMAP
E18F00
F19980
D19980
D19980
D99980
C99980
CD8F00
C58000
C58000
C78F00
C38000
C38000
ENDCHAR
STARTCHAR 2122
ENCODING 8482
SWIDTH 1020 0
DWIDTH 17 0
BBX 14 6 1 6
BITMAP
F98C
2154
2154
2124
2124
2104
ENDCHAR
STARTCHAR 2126
ENCODING 8486
SWIDTH 840 0
DWIDTH 14 0
BBX 12 12 1 0
BITMAP
1F80
70E0
6060
C030
C030
C030
C030
6060
70E0
1980
1980
F9F0
ENDCHAR
STARTCHAR 212E
ENCODING 8494
SWIDTH 720 0
DWIDTH 12 0
BBX 10 11 1 0
BITMAP
1F00
6180
40C0
C0C0
FFC0
C000
C000
C000
6040
70C0
1F80
ENDCHAR
STARTCHAR 215B
ENCODING 8539
SWIDTH 1020 0
DWIDTH 17 0
BBX 15 12 1 0
BITMAP
3060
F040
30C0
3080
31BC
3166
3266
363C
046E
0C66
0866
183C
ENDCHAR
STARTCHAR 215C
ENCODING 8540
SWIDTH 1020 0
DWIDTH 17 0
BBX 15 12 1 0
BITMAP
F060
9840
18C0
7080
19BC
1966
9A66
F63C
046E
0C66
0866
183C
ENDCHAR
STARTCHAR 215D
ENCODING 8541
SWIDTH 1020 0
DWIDTH 17 0
BBX 15 12 1 0
BITMAP
F860
C040
C0C0
F080
19BC
1966
9A66
F63C
046E
0C66
0866
183C
ENDCHAR
STARTCHAR 215E
ENCODING 8542
SWIDTH 1020 0
DWIDTH 17 0
BBX 14 12 1 0
BITMAP
FC60
0C40
18C0
3880
31F8
71CC
62CC
E678
04DC
0CCC
08CC
1878
ENDCHAR
STARTCHAR 2202
ENCODING 8706
SWIDTH 660 0
DWIDTH 11 0
BBX 8 12 1 0
BITMAP
7C
46
03
03
3B
67
C3
C3
C3
C6
66
38
ENDCHAR
STARTCHAR 2206
ENCODING 8710
SWIDTH 720 0
DWIDTH 12 0
BBX 12 12 0 0
BITMAP
0600
0F00
0F00
1F80
1980
1980
30C0
30C0
70E0
6060
6060
FFF0
ENDCHAR
STARTCHAR 220F
ENCODING 8719
SWIDTH 840 0
DWIDTH 14 0
BBX 12 14 1 -2
BITMAP
FFF0
30C0
30C0
30C0
30C0
30C0
30C0
30C0
30C0
30C0
30C0
30C0
30C0
30C0
ENDCHAR
STARTCHAR 2211
ENCODING 8721
SWIDTH 720 0
DWIDTH 12 0
BBX 10 13 2 -1
BITMAP
FFC0
6000
3000
1800
0C00
0600
0300
0600
0C00
1800
3000
6000
FFC0
ENDCHAR
STARTCHAR 2212
ENCODING 8722
SWIDTH 840 0
DWIDTH 14 0
BBX 10 1 2 5
BITMAP
FFC0
ENDCHAR
STARTCHAR 2215
ENCODING 8725
SWIDTH 360 0
DWIDTH 6 0
BBX 8 12 -1 0
BITMAP
03
02
06
04
0C
08
10
30
20
60
40
C0
ENDCHAR
STARTCHAR 2219
ENCODING 8729
SWIDTH 360 0
DWIDTH 6 0
BBX 2 2 2 4
BITMAP
C0
C0
ENDCHAR
STARTCHAR 221A
ENCODING 8730
SWIDTH 840 0
DWIDTH 14 0
BBX 13 16 1 -1
BITMAP
0008
0010
0010
0020
0020
0020
0040
F040
3080
1880
1900
1D00
0F00
0E00
0600
0400
ENDCHAR
STARTCHAR 221E
ENCODING 8734
SWIDTH 1020 0
DWIDTH 17 0
BBX 15 8 1 2
BITMAP
3C78
7EFC
E38E
C186
C306
E38E
7EFC
3C78
ENDCHAR
STARTCHAR 222B
ENCODING 8747
SWIDTH 660 0
DWIDTH 11 0
BBX 9 16 2 -3
BITMAP
0780
0C00
1800
1800
1800
1800
1800
1800
1800
1800
1800
1800
1800
1800
1800
F000
ENDCHAR
STARTCHAR 2248
ENCODING 8776
SWIDTH 840 0
DWIDTH 14 0
BBX 10 7 2 2
BITMAP
70C0
E8C0
C780
0000
70C0
C9C0
C780
ENDCHAR
STARTCHAR 2260
ENCODING 8800
SWIDTH 840 0
DWIDTH 14 0
BBX 10 11 2 0
BITMAP
0200
0200
0400
FFC0
0400
0C00
0800
FFC0
0800
1000
1000
ENDCHAR
STARTCHAR 2264
ENCODING 8804
SWIDTH 840 0
DWIDTH 14 0
BBX 10 12 2 0
BITMAP
00C0
0300
1C00
6000
8000
6000
1C00
0300
00C0
0000
0000
FFC0
ENDCHAR
STARTCHAR 2265
ENCODING 8805
SWIDTH 840 0
DWIDTH 14 0
BBX 10 12 2 0
BITMAP
C000
3000
0E00
0180
0040
0180
0E00
3000
C000
0000
0000
FFC0
ENDCHAR
STARTCHAR 25A1
ENCODING 9633
SWIDTH 600 0
DWIDTH 10 0
BBX 8 8 1 0
BITMAP
FF
81
81
81
81
81
81
FF
ENDCHAR
STARTCHAR 25AA
ENCODING 9642
SWIDTH 360 0
DWIDTH 6 0
BBX 4 4 1 4
BITMAP
F0
F0
F0
F0
ENDCHAR
STARTCHAR 25AB
ENCODING 9643
SWIDTH 360 0
DWIDTH 6 0
BBX 4 4 1 4
BITMAP
F0
90
90
F0
ENDCHAR
STARTCHAR 25CA
ENCODING 9674
SWIDTH 840 0
DWIDTH 14 0
BBX 11 11 1 0
BITMAP
0400
0E00
1B00
3180
60C0
C060
60C0
3180
1B00
0E00
0400
ENDCHAR
STARTCHAR 25CF
ENCODING 9679
SWIDTH 600 0
DWIDTH 10 0
BBX 7 7 1 1
BITMAP
38
7C
FE
FE
FE
7C
38
ENDCHAR
STARTCHAR 25E6
ENCODING 9702
SWIDTH 360 0
DWIDTH 6 0
BBX 4 4 1 4
BITMAP
60
90
90
60
ENDCHAR
STARTCHAR F001
ENCODING 61441
SWIDTH 660 0
DWIDTH 11 0
BBX 9 13 0 0
BITMAP
3C00
6180
6180
6000
FF80
6180
6180
6180
6180
6180
6180
6180
6180
ENDCHAR
STARTCHAR F002
ENCODING 61442
SWIDTH 660 0
DWIDTH 11 0
BBX 9 13 0 0
BITMAP
1F80
3180
6180
6180
FD80
6180
6180
6180
6180
6180
6180
6180
6180
ENDCHAR
STARTCHAR F004
ENCODING 61444
SWIDTH 240 0
DWIDTH 4 0
BBX 3 5 1 -3
BITMAP
60
40
40
C0
80
ENDCHAR
STARTCHAR F005
ENCODING 61445
SWIDTH 660 0
DWIDTH 11 0
BBX 4 3 3 -3
BITMAP
30
30
E0
ENDCHAR
STARTCHAR F006
ENCODING 61446
SWIDTH 540 0
DWIDTH 9 0
BBX 4 8 2 4
BITMAP
30
F0
30
30
30
30
30
30
ENDCHAR
STARTCHAR F007
ENCODING 61447
SWIDTH 540 0
DWIDTH 9 0
BBX 6 8 2 4
BITMAP
F0
98
18
18
30
60
C0
FC
ENDCHAR
STARTCHAR F008
ENCODING 61448
SWIDTH 540 0
DWIDTH 9 0
BBX 5 8 2 4
BITMAP
F0
98
18
70
18
18
98
F0
ENDCHAR
STARTCHAR F009
ENCODING 61449
SWIDTH 540 0
DWIDTH 9 0
BBX 6 8 1 4
BITMAP
18
38
78
58
98
FC
18
18
ENDCHAR
STARTCHAR F00A
ENCODING 61450
SWIDTH 540 0
DWIDTH 9 0
BBX 5 8 2 4
BITMAP
F8
C0
C0
F0
18
18
98
F0
ENDCHAR
STARTCHAR F00B
ENCODING 61451
SWIDTH 540 0
DWIDTH 9 0
BBX 6 8 2 4
BITMAP
FC
0C
18
38
30
70
60
E0
ENDCHAR
STARTCHAR F00C
ENCODING 61452
SWIDTH 540 0
DWIDTH 9 0
BBX 6 8 2 4
BITMAP
78
CC
CC
78
DC
CC
CC
78
ENDCHAR
STARTCHAR F00D
ENCODING 61453
SWIDTH 0 0
DWIDTH 0 0
BBX 1 1 0 0
BITMAP
00
ENDCHAR
STARTCHAR FB01
ENCODING 64257
SWIDTH 660 0
DWIDTH 11 0
BBX 9 13 0 0
BITMAP
3C00
6180
6180
6000
FF80
6180
6180
6180
6180
6180
6180
6180
6180
ENDCHAR
STARTCHAR FB02
ENCODING 64258
SWIDTH 660 0
DWIDTH 11 0
BBX 9 13 0 0
BITMAP
1F80
3180
6180
6180
FD80
6180
6180
6180
6180
6180
6180
6180
6180
ENDCHAR
ENDFONT
